<svg xmlns="http://www.w3.org/2000/svg" xmlns:xlink="http://www.w3.org/1999/xlink" width="57" height="60" fill="none"><path d="M1.276 0C.571 0 0 .571 0 1.276v57.446c0 .339.134.664.373.903a1.28 1.28 0 0 0 .903.374h44.678a1.28 1.28 0 0 0 .903-.374 1.28 1.28 0 0 0 .373-.903V41.377l4.205 4.205a1.28 1.28 0 0 0 2.179-.903V32.566a10.82 10.82 0 0 0 3.19-7.674c0-5.545-4.196-10.133-9.574-10.768V1.277A1.275 1.275 0 0 0 45.954 0H1.276zm1.278 2.554h42.121v11.569c-5.378.636-9.574 5.224-9.574 10.769a10.82 10.82 0 0 0 3.194 7.676V44.68a1.28 1.28 0 0 0 2.179.902l4.201-4.201v16.065H2.554V2.554zm43.4 14.041a8.276 8.276 0 0 1 8.296 8.296 8.28 8.28 0 1 1-16.594 0 8.28 8.28 0 0 1 8.298-8.296zm5.108 17.863v7.138l-4.204-4.203a1.275 1.275 0 0 0-1.805 0l-4.204 4.203V34.46a10.77 10.77 0 0 0 5.105 1.283 10.77 10.77 0 0 0 5.108-1.285z" fill="#41464a"/><g fill="#3fb870"><path d="M18.508 6.38a1.28 1.28 0 0 0-1.277 1.277 1.28 1.28 0 0 0 1.277 1.277h10.216a1.28 1.28 0 0 0 1.277-1.277 1.28 1.28 0 0 0-1.277-1.277H18.508zm-1.278 9.575a1.28 1.28 0 0 0-1.277 1.277 1.28 1.28 0 0 0 1.277 1.277h14.682a1.28 1.28 0 0 0 1.277-1.277 1.28 1.28 0 0 0-1.277-1.277H17.23z"/><use xlink:href="#a"/><use xlink:href="#a" y="6.384"/></g><g fill="#41464a"><use xlink:href="#a" y="12.765"/><path d="M8.934 41.487a1.28 1.28 0 0 0-1.277 1.277 1.28 1.28 0 0 0 1.277 1.277h11.493a1.276 1.276 0 0 0 0-2.554H8.934zm22.342 9.575a1.276 1.276 0 0 0 0 2.554h7.021a1.28 1.28 0 0 0 1.277-1.277 1.28 1.28 0 0 0-1.277-1.277h-7.021z"/></g><defs><path id="a" d="M8.934 22.339a1.277 1.277 0 0 0 0 2.554h22.979a1.277 1.277 0 0 0 0-2.554H8.934z"/></defs></svg>