<svg xmlns="http://www.w3.org/2000/svg" width="56" height="50" fill="none"><path d="M33.827.805c-3.806-1.872-10.751 1.442-10.826 1.479h-.081c-2.402.624-4.137-1.198-4.923-2.284-.786 1.666-2.496 5.791-1.173 7.974.562.942 1.678 1.416 3.313 1.416a51.63 51.63 0 0 0 15.281-2.62.474.474 0 0 1 .623.443v.855a5.12 5.12 0 0 0 .337 1.791h.356a.45.45 0 0 1 .038-.181.47.47 0 0 1 .43-.287h.986c.094-1.436.075-6.421-4.362-8.586h.001zm2.907 13.652v-2.134l-.499-.699a6.08 6.08 0 0 1-1.13-3.532v-.206a53.47 53.47 0 0 1-14.501 2.465v4.106a8.07 8.07 0 0 0 1.94 5.219 8.067 8.067 0 0 0 4.859 2.719 8.07 8.07 0 0 0 5.463-1.075c.15-.094.299-.187.443-.287a8.074 8.074 0 0 0 3.426-6.595l-.001.019zm-8.062 5.947a3.8 3.8 0 0 1-3.744-3.332h7.513a3.805 3.805 0 0 1-3.769 3.332zm2.846-7.332a.47.47 0 0 1 .468-.468.47.47 0 0 1 .468.468v.842a.47.47 0 0 1-.468.468.47.47 0 0 1-.468-.468v-.842zm-6.365 0a.47.47 0 0 1 .468-.468.47.47 0 0 1 .468.468v.842a.47.47 0 0 1-.468.468.47.47 0 0 1-.468-.468v-.842zm13.909-2.471a1.21 1.21 0 0 0-.743-.249h-.624v3.594a2.403 2.403 0 0 0 1.311-.755c.38-.43.589-.985.586-1.56v-.037a1.25 1.25 0 0 0-.53-.992zm-19.399-.248h-.624a1.25 1.25 0 0 0-.73.243 1.2 1.2 0 0 0-.505.998 2.35 2.35 0 0 0 .587 1.597 2.41 2.41 0 0 0 1.273.755v-3.594zm4.374 14.182-2.115 1.448.911 2.228h5.029l-3.463-3.332-.362-.343zm11.388 1.43-2.115-1.604-2.845 2.839-1.011 1.011h5.055l.917-2.246zm-13.604 2.246-.761-1.872a12.98 12.98 0 0 0-2.34.817h-.069a11.89 11.89 0 0 0-1.778 1.017l4.948.037zm16.861-1.017h-.069a12.69 12.69 0 0 0-2.34-.817l-.755 1.872h3.544a.475.475 0 0 1 .462.374l3.85 18.221h1.579l-.262-11.232c-.025-3.482-2.315-6.701-6.009-8.418zm-5.86-3.669.156-1.154a9.15 9.15 0 0 1-8.623 0l.162 1.248v.094l4.118 3.962 4.187-4.149zM7.457 29.141l3.713 17.697h31.231l-3.719-17.697H7.457zm17.472 5.522a3.326 3.326 0 1 1-3.326 3.326 3.32 3.32 0 0 1 .976-2.348 3.323 3.323 0 0 1 2.35-.972v-.007zM10.79 47.779h-.549L10.909 50h35.954l-.662-2.221H10.79z" fill="#41464a"/><path d="M43.075 21.434a.47.47 0 0 0 .331.138.49.49 0 0 0 .33-.138l3.669-3.675a.47.47 0 0 0-.327-.81.465.465 0 0 0-.334.149l-3.669 3.675h.001a.46.46 0 0 0 0 .661zm3.813 5.546a.47.47 0 0 0 .412.243.436.436 0 0 0 .225-.062l4.53-2.533a.47.47 0 0 0 .173-.631.47.47 0 0 0-.628-.186l-4.53 2.533a.47.47 0 0 0-.181.636zm2.165 6.378a.47.47 0 0 0 .455.362h.112l5.048-1.211a.47.47 0 0 0 .346-.565.47.47 0 0 0-.565-.346l-5.048 1.21a.46.46 0 0 0-.349.549zm.355 6.728a.46.46 0 0 0 .443.487l5.192.206h-.001a.47.47 0 0 0 .468-.449.474.474 0 0 0-.45-.487l-5.192-.206a.48.48 0 0 0-.462.45zM11.813 21.434a.49.49 0 0 0 .33.137.47.47 0 0 0 .331-.137.46.46 0 0 0 0-.661l-3.669-3.675a.47.47 0 0 0-.65.011.47.47 0 0 0-.011.65l3.669 3.675zm-8.317 3.195 4.53 2.533a.42.42 0 0 0 .225.062.47.47 0 0 0 .461-.349.47.47 0 0 0-.231-.531l-4.53-2.533a.47.47 0 0 0-.628.186.47.47 0 0 0 .173.632zM.881 32.497l5.054 1.21h.112a.47.47 0 0 0 .464-.414.47.47 0 0 0-.357-.509L1.1 31.586a.47.47 0 0 0-.565.346.47.47 0 0 0 .346.565zm-.394 8.28 5.192-.206a.47.47 0 0 0 .45-.486.474.474 0 0 0-.487-.45l-5.192.206a.476.476 0 0 0-.45.487.47.47 0 0 0 .487.45z" fill="#3fb870"/></svg>