<svg xmlns="http://www.w3.org/2000/svg" width="59" height="60" fill="none"><path d="M13.095.002c-.464.046-.894.262-1.207.607s-.486.794-.485 1.26v1.992h-1.065C4.635 3.862 0 8.516 0 14.218a10.35 10.35 0 0 0 10.338 10.337h1.428c1.275 6.337 5.868 11.46 11.887 13.512v6.32h-9.326a1.875 1.875 0 1 0 0 3.749h1.952v8.111h-1.952a1.85 1.85 0 0 0-.194 0 1.88 1.88 0 0 0-1.445 2.883 1.88 1.88 0 0 0 1.639.867H44.65a1.876 1.876 0 1 0 0-3.75h-1.966v-8.111h1.967a1.873 1.873 0 0 0 1.353-3.216 1.875 1.875 0 0 0-1.353-.534h-8.818v-6.511c5.764-2.165 10.137-7.169 11.378-13.321h1.414c5.702 0 10.352-4.636 10.352-10.337A10.38 10.38 0 0 0 48.623 3.863h-1.055V1.87A1.873 1.873 0 0 0 45.686.003h-32.4a1.81 1.81 0 0 0-.191 0zm2.062 3.75h28.661V20.97c0 .509-.032 1.022-.084 1.523v.033a14.219 14.219 0 0 1-10.473 12.256c-.499.135-1.007.241-1.523.322l-.403.059c-.609.078-1.228.132-1.856.132a13.88 13.88 0 0 1-1.762-.117h-.004a15.743 15.743 0 0 1-1.721-.326 1.163 1.163 0 0 0-.085-.018 14.208 14.208 0 0 1-10.671-12.338v-.004a14.73 14.73 0 0 1-.081-1.523V5.733l.001-1.98zm-4.819 3.863h1.066v13.19h-1.065a6.53 6.53 0 0 1-6.599-6.588 6.54 6.54 0 0 1 6.599-6.602zm37.23 0h1.055a6.54 6.54 0 0 1 6.599 6.602 6.53 6.53 0 0 1-6.599 6.588h-1.055V7.615zm-18.104.154a1.874 1.874 0 0 0-1.721 1.176l-1.626 4.054-4.365.3a1.873 1.873 0 0 0-1.74 2.022c.04.499.279.962.663 1.284l3.362 2.801-1.069 4.248a1.877 1.877 0 0 0 1.388 2.273 1.88 1.88 0 0 0 1.424-.233l3.706-2.325 3.702 2.329a1.876 1.876 0 0 0 2.816-2.048l-1.069-4.24 3.358-2.801a1.874 1.874 0 0 0-1.077-3.317l-4.361-.293-1.63-4.057a1.867 1.867 0 0 0-.7-.858 1.88 1.88 0 0 0-1.062-.314zm.022 6.899.329.82a1.885 1.885 0 0 0 1.615 1.173l.879.055-.681.571a1.87 1.87 0 0 0-.579.86c-.108.335-.12.695-.033 1.036l.22.86-.754-.473a1.874 1.874 0 0 0-1.996 0l-.747.469.22-.857a1.878 1.878 0 0 0-.616-1.893l-.674-.567.875-.059a1.88 1.88 0 0 0 1.611-1.176l.329-.821zm2.611 24.169v5.551h-4.691v-5.467a18.2 18.2 0 0 0 2.073.125 18.12 18.12 0 0 0 2.618-.209zm-12.07 9.301h18.906v8.111H20.026v-8.111z" fill="#41464a"/><mask id="a" maskUnits="userSpaceOnUse" x="0" y="0" width="59" height="60" mask-type="alpha"><path d="M13.095.002c-.464.046-.894.262-1.207.607s-.486.794-.485 1.26v1.992h-1.065C4.635 3.862 0 8.516 0 14.218a10.35 10.35 0 0 0 10.338 10.337h1.428c1.275 6.337 5.868 11.46 11.887 13.512v6.32h-9.326a1.875 1.875 0 1 0 0 3.749h1.952v8.111h-1.952a1.85 1.85 0 0 0-.194 0 1.88 1.88 0 0 0-1.445 2.883 1.88 1.88 0 0 0 1.639.867H44.65a1.876 1.876 0 1 0 0-3.75h-1.966v-8.111h1.967a1.873 1.873 0 0 0 1.353-3.216 1.875 1.875 0 0 0-1.353-.534h-8.818v-6.511c5.764-2.165 10.137-7.169 11.378-13.321h1.414c5.702 0 10.352-4.636 10.352-10.337A10.38 10.38 0 0 0 48.623 3.863h-1.055V1.87A1.873 1.873 0 0 0 45.686.003h-32.4a1.81 1.81 0 0 0-.191 0zm2.062 3.75h28.661V20.97c0 .509-.032 1.022-.084 1.523v.033a14.219 14.219 0 0 1-10.473 12.256c-.499.135-1.007.241-1.523.322l-.403.059c-.609.078-1.228.132-1.856.132a13.88 13.88 0 0 1-1.762-.117h-.004a15.743 15.743 0 0 1-1.721-.326 1.163 1.163 0 0 0-.085-.018 14.208 14.208 0 0 1-10.671-12.338v-.004a14.73 14.73 0 0 1-.081-1.523V5.733l.001-1.98zm-4.819 3.863h1.066v13.19h-1.065a6.53 6.53 0 0 1-6.599-6.588 6.54 6.54 0 0 1 6.599-6.602zm37.23 0h1.055a6.54 6.54 0 0 1 6.599 6.602 6.53 6.53 0 0 1-6.599 6.588h-1.055V7.615zm-18.104.154a1.874 1.874 0 0 0-1.721 1.176l-1.626 4.054-4.365.3a1.873 1.873 0 0 0-1.74 2.022c.04.499.279.962.663 1.284l3.362 2.801-1.069 4.248a1.877 1.877 0 0 0 1.388 2.273 1.88 1.88 0 0 0 1.424-.233l3.706-2.325 3.702 2.329a1.876 1.876 0 0 0 2.816-2.048l-1.069-4.24 3.358-2.801a1.874 1.874 0 0 0-1.077-3.317l-4.361-.293-1.63-4.057a1.867 1.867 0 0 0-.7-.858 1.88 1.88 0 0 0-1.062-.314zm.022 6.899.329.82a1.885 1.885 0 0 0 1.615 1.173l.879.055-.681.571a1.87 1.87 0 0 0-.579.86c-.108.335-.12.695-.033 1.036l.22.86-.754-.473a1.874 1.874 0 0 0-1.996 0l-.747.469.22-.857a1.878 1.878 0 0 0-.616-1.893l-.674-.567.875-.059a1.88 1.88 0 0 0 1.611-1.176l.329-.821zm2.611 24.169v5.551h-4.691v-5.467a18.2 18.2 0 0 0 2.073.125 18.12 18.12 0 0 0 2.618-.209zm-12.07 9.301h18.906v8.111H20.026v-8.111z" fill="#000"/></mask><g mask="url(#a)"><path fill="#3fb870" d="M19 6h21v22H19z"/></g></svg>