<svg xmlns="http://www.w3.org/2000/svg" width="57" height="60" fill="none"><path d="M16.762 0a.643.643 0 0 0-.581.647v13.84a.64.64 0 0 0 .625.647h3.237L17.32 21.92a.642.642 0 0 0 .96.759l11.273-7.545h20.715a.64.64 0 0 0 .459-.188.643.643 0 0 0 .188-.459V.648a.647.647 0 0 0-.188-.459.64.64 0 0 0-.459-.188H16.762zm.692 1.294H49.62v12.545H29.351a.64.64 0 0 0-.357.112l-9.687 6.496 2.277-5.715a.643.643 0 0 0-.581-.892h-3.549V1.295zm7.634 3.594-.536.246-.089.58.402.424.223.022h5.134l.513-.268.089-.558-.402-.424-.201-.022h-5.134zm7.701 0-.513.246-.089.58.402.424.201.022h1.294l.513-.268.089-.558-.402-.424-.201-.022H32.79zm3.861 0-.513.246-.112.58.424.424.201.022h5.134l.536-.268.089-.558-.402-.424-.223-.022H36.65zm-11.697 3.46a.643.643 0 0 0 .134 1.272h16.92a.645.645 0 0 0 .514-.15.64.64 0 0 0 0-.973.645.645 0 0 0-.514-.15h-16.92a.75.75 0 0 0-.134 0zM10.736 23.817c-3.784 0-6.875 3.094-6.875 6.875 0 3.194 2.213 5.852 5.179 6.607H7.723A7.723 7.723 0 0 0 0 45.023v7.255A7.723 7.723 0 0 0 7.723 60h6.027a7.694 7.694 0 0 0 5.737-2.567A7.71 7.71 0 0 0 25.246 60h6.027a7.71 7.71 0 0 0 5.759-2.567A7.634 7.634 0 0 0 42.746 60h6.049c4.266 0 7.701-3.458 7.701-7.723v-7.255c0-4.266-3.435-7.723-7.701-7.723h-1.317c2.96-.759 5.157-3.417 5.157-6.607 0-3.781-3.069-6.875-6.853-6.875s-6.875 3.094-6.875 6.875c0 3.19 2.196 5.849 5.156 6.607h-1.317c-2.281 0-4.306.996-5.715 2.567a7.71 7.71 0 0 0-5.759-2.567h-1.294c2.955-.762 5.157-3.421 5.157-6.607 0-3.781-3.092-6.875-6.875-6.875s-6.875 3.094-6.875 6.875c0 3.19 2.196 5.849 5.157 6.607h-1.294a7.71 7.71 0 0 0-5.759 2.567 7.694 7.694 0 0 0-5.737-2.567h-1.317c2.966-.755 5.179-3.414 5.179-6.607 0-3.781-3.092-6.875-6.875-6.875h-.003zm0 1.294c3.088 0 5.581 2.494 5.581 5.581s-2.492 5.536-5.581 5.536-5.581-2.449-5.581-5.536 2.492-5.581 5.581-5.581zm17.523 0c3.088 0 5.58 2.494 5.58 5.581s-2.492 5.536-5.58 5.536-5.581-2.449-5.581-5.536 2.492-5.581 5.581-5.581zm17.524 0c3.088 0 5.581 2.494 5.581 5.581s-2.492 5.536-5.581 5.536-5.603-2.449-5.603-5.536 2.514-5.581 5.603-5.581zM7.723 38.594h6.027c2.011 0 3.803.895 4.978 2.321a7.648 7.648 0 0 0-1.205 4.107v7.255c0 1.516.451 2.914 1.205 4.107-1.175 1.427-2.967 2.321-4.978 2.321H7.723a6.397 6.397 0 0 1-6.428-6.428v-7.255a6.397 6.397 0 0 1 6.428-6.428zm17.523 0h6.027a6.397 6.397 0 0 1 6.429 6.429v7.255a6.398 6.398 0 0 1-6.429 6.429h-6.027a6.416 6.416 0 0 1-6.451-6.428v-7.255a6.415 6.415 0 0 1 6.451-6.428zm17.501 0h6.049a6.397 6.397 0 0 1 6.429 6.429v7.255a6.398 6.398 0 0 1-6.428 6.429h-6.049c-2 0-3.78-.887-4.956-2.299a7.656 7.656 0 0 0 1.205-4.129v-7.255a7.659 7.659 0 0 0-1.205-4.13 6.414 6.414 0 0 1 4.956-2.299z" fill="#41464a"/><mask id="a" maskUnits="userSpaceOnUse" x="0" y="0" width="57" height="60" mask-type="alpha"><path d="M16.762 0a.643.643 0 0 0-.581.647v13.84a.64.64 0 0 0 .625.647h3.237L17.32 21.92a.642.642 0 0 0 .96.759l11.273-7.545h20.715a.64.64 0 0 0 .459-.188.643.643 0 0 0 .188-.459V.648a.647.647 0 0 0-.188-.459.64.64 0 0 0-.459-.188H16.762zm.692 1.294H49.62v12.545H29.351a.64.64 0 0 0-.357.112l-9.687 6.496 2.277-5.715a.643.643 0 0 0-.581-.892h-3.549V1.295zm7.634 3.594-.536.246-.089.58.402.424.223.022h5.134l.513-.268.089-.558-.402-.424-.201-.022h-5.134zm7.701 0-.513.246-.089.58.402.424.201.022h1.294l.513-.268.089-.558-.402-.424-.201-.022H32.79zm3.861 0-.513.246-.112.58.424.424.201.022h5.134l.536-.268.089-.558-.402-.424-.223-.022H36.65zm-11.697 3.46a.643.643 0 0 0 .134 1.272h16.92a.645.645 0 0 0 .514-.15.64.64 0 0 0 0-.973.645.645 0 0 0-.514-.15h-16.92a.75.75 0 0 0-.134 0zM10.736 23.817c-3.784 0-6.875 3.094-6.875 6.875 0 3.194 2.213 5.852 5.179 6.607H7.723A7.723 7.723 0 0 0 0 45.023v7.255A7.723 7.723 0 0 0 7.723 60h6.027a7.694 7.694 0 0 0 5.737-2.567A7.71 7.71 0 0 0 25.246 60h6.027a7.71 7.71 0 0 0 5.759-2.567A7.634 7.634 0 0 0 42.746 60h6.049c4.266 0 7.701-3.458 7.701-7.723v-7.255c0-4.266-3.435-7.723-7.701-7.723h-1.317c2.96-.759 5.157-3.417 5.157-6.607 0-3.781-3.069-6.875-6.853-6.875s-6.875 3.094-6.875 6.875c0 3.19 2.196 5.849 5.156 6.607h-1.317c-2.281 0-4.306.996-5.715 2.567a7.71 7.71 0 0 0-5.759-2.567h-1.294c2.955-.762 5.157-3.421 5.157-6.607 0-3.781-3.092-6.875-6.875-6.875s-6.875 3.094-6.875 6.875c0 3.19 2.196 5.849 5.157 6.607h-1.294a7.71 7.71 0 0 0-5.759 2.567 7.694 7.694 0 0 0-5.737-2.567h-1.317c2.966-.755 5.179-3.414 5.179-6.607 0-3.781-3.092-6.875-6.875-6.875h-.003zm0 1.294c3.088 0 5.581 2.494 5.581 5.581s-2.492 5.536-5.581 5.536-5.581-2.449-5.581-5.536 2.492-5.581 5.581-5.581zm17.523 0c3.088 0 5.58 2.494 5.58 5.581s-2.492 5.536-5.58 5.536-5.581-2.449-5.581-5.536 2.492-5.581 5.581-5.581zm17.524 0c3.088 0 5.581 2.494 5.581 5.581s-2.492 5.536-5.581 5.536-5.603-2.449-5.603-5.536 2.514-5.581 5.603-5.581zM7.723 38.594h6.027c2.011 0 3.803.895 4.978 2.321a7.648 7.648 0 0 0-1.205 4.107v7.255c0 1.516.451 2.914 1.205 4.107-1.175 1.427-2.967 2.321-4.978 2.321H7.723a6.397 6.397 0 0 1-6.428-6.428v-7.255a6.397 6.397 0 0 1 6.428-6.428zm17.523 0h6.027a6.397 6.397 0 0 1 6.429 6.429v7.255a6.398 6.398 0 0 1-6.429 6.429h-6.027a6.416 6.416 0 0 1-6.451-6.428v-7.255a6.415 6.415 0 0 1 6.451-6.428zm17.501 0h6.049a6.397 6.397 0 0 1 6.429 6.429v7.255a6.398 6.398 0 0 1-6.428 6.429h-6.049c-2 0-3.78-.887-4.956-2.299a7.656 7.656 0 0 0 1.205-4.129v-7.255a7.659 7.659 0 0 0-1.205-4.13 6.414 6.414 0 0 1 4.956-2.299z" fill="#000"/></mask><g mask="url(#a)"><path fill="#3fb870" d="M12-5h46v28H12z"/></g></svg>