<svg xmlns="http://www.w3.org/2000/svg" width="53" height="51" fill="none"><path d="m48.145 47.151.223-.22v-17.27h3.537v20.183h-6.481l2.721-2.692zm1.931-23.543c.973 0 1.769.794 1.769 1.779s-.795 1.779-1.769 1.779-1.769-.793-1.769-1.779.795-1.779 1.769-1.779z" stroke="#3fb870" stroke-width="1.5"/><path d="M50.616 20.52h-6.762l4.116-4.084.148-.147V9.19l-.146-.146-4.378-4.397-.146-.147H10.109l-.146.145L5.525 9.04l-.148.147V21.4h5.258v-9.336H19.612c.994 0 1.955.279 2.654.762.691.478 1.104 1.135 1.104 1.93v3.475h-4.038v-2.108h-3.876v5.337h19.461c5.833.411 8.318 4.244 8.364 7.217.022 1.428-.234 2.594-.751 3.53s-1.307 1.67-2.418 2.218l-.279.137v.839l.326.121c2.225.828 3.342 2.108 3.936 3.265.488.951.629 1.813.722 2.387l.054.314v1.918c-.56 2.781-2.914 6.686-8.106 6.686H.529l-.025-9.433 5.875 5.861.146.146h20.722V26.332H15.455v5.969h3.876v-2.169h4.037V32.884c0 1.076-.057 1.923-.426 2.513-.33.527-.995.962-2.552.962h-9.605v-10.84h-.5v.5-.5H4.438c-1.28 0-2.239-.301-2.876-.891C.931 24.045.53 23.099.53 21.622V.5h51.684v18.389l-1.598 1.631zm-18.831 5.722h-.5v7.445H35.488l.045-.008c2.476-.452 3.917-2.082 3.926-3.825.009-1.771-1.453-3.319-4.081-3.609l-.027-.003h-3.565zm0 11.625h-.5v8.89h4.758l.029-.004c2.74-.325 4.18-2.39 4.23-4.452s-1.297-4.137-4.01-4.431l-.027-.003h-4.48z" stroke="#41464a"/></svg>