<svg xmlns="http://www.w3.org/2000/svg" width="60" height="60" fill="none"><path d="M30 0C13.442 0 0 13.442 0 30c0 16.281 12.998 29.532 29.173 29.973.27.027.553.027.827.027s.558 0 .827-.027C47.002 59.533 60 46.281 60 30 60 13.442 46.558 0 30 0zm-.883 1.848v10.506h-9.375c.34-.894.689-1.767 1.075-2.564 2.262-4.667 5.211-7.484 8.3-7.941v-.001zm1.764 0c3.089.457 6.037 3.274 8.3 7.941.387.798.735 1.671 1.075 2.564h-9.375V1.847v.001zm-6.838.551c-1.855 1.579-3.488 3.859-4.825 6.618-.502 1.035-.956 2.167-1.379 3.337h-9.87c3.985-4.967 9.622-8.569 16.074-9.955h.001zm11.912 0c6.453 1.385 12.09 4.988 16.075 9.954h-9.872a34.64 34.64 0 0 0-1.379-3.337c-1.337-2.759-2.97-5.039-4.825-6.618h.001zM6.673 14.118h10.588a50.246 50.246 0 0 0-1.958 9.706H2.454a28.06 28.06 0 0 1 4.218-9.706h.001zm12.436 0h10.009v9.706H17.095c.38-3.531 1.075-6.815 2.013-9.706h.001zm11.774 0h10.009c.937 2.891 1.633 6.175 2.013 9.706H30.882l.001-9.706zm11.857 0h10.588a28.023 28.023 0 0 1 4.218 9.706H44.697a50.171 50.171 0 0 0-1.958-9.706h.001zM2.125 25.589h13.042A60.51 60.51 0 0 0 15.001 30c0 1.5.062 2.972.165 4.412H2.125A28.47 28.47 0 0 1 1.766 30c0-1.502.133-2.973.358-4.411zm14.834 0h12.16v8.824h-12.16c-.108-1.437-.193-2.911-.193-4.412 0-1.51.083-2.965.193-4.412zm13.925 0h12.16c.11 1.447.193 2.901.193 4.412 0 1.501-.085 2.975-.193 4.412h-12.16v-8.824zm13.952 0h13.042A28.48 28.48 0 0 1 58.236 30a28.48 28.48 0 0 1-.358 4.412H44.836c.104-1.44.165-2.911.165-4.412a60.87 60.87 0 0 0-.165-4.412zM2.455 36.177h12.849a50.156 50.156 0 0 0 1.958 9.706H6.646a28.071 28.071 0 0 1-4.191-9.706zm14.642 0h12.022v9.706H19.11c-.94-2.893-1.635-6.171-2.013-9.706zm13.787 0h12.022c-.379 3.535-1.073 6.813-2.013 9.706H30.884v-9.706h-.001zm13.814 0h12.849a28.08 28.08 0 0 1-4.191 9.706H42.739a50.231 50.231 0 0 0 1.958-9.706zM7.943 47.647h9.899a34.67 34.67 0 0 0 1.379 3.309c1.348 2.78 3.007 5.086 4.881 6.673a28.241 28.241 0 0 1-16.158-9.982zm11.801 0h9.375v10.506c-3.087-.462-6.038-3.303-8.3-7.969a31.657 31.657 0 0 1-1.075-2.537zm11.14 0h9.375c-.34.892-.689 1.739-1.075 2.537-2.262 4.665-5.212 7.506-8.3 7.969V47.647zm11.277 0h9.899a28.248 28.248 0 0 1-16.158 9.982c1.873-1.587 3.532-3.892 4.881-6.673.5-1.031.957-2.145 1.378-3.309z" fill="#41464a"/><circle cx="30" cy="30" r="28.8" stroke="#3fb870" stroke-width="2.4"/></svg>