<svg xmlns="http://www.w3.org/2000/svg" width="60" height="48" fill="none"><path d="M19.402 22.093a6.98 6.98 0 0 0 .221 1.785c.264 1 1.663 4.006 2.599 5.964l-.214.011-.202.016-.066.005c-1.296.101-2.626.381-3.798.629l-.125.026-.865.18-3.63.822-.147.035-4.499.972c-1.815.308-3.767.457-5.97.457a56.06 56.06 0 0 1-.514-.002l2.101-3.435.384-.627-.382-.628-2.109-3.469.521.003c2.336 0 4.42-.16 6.373-.491l4.63-.997.175-.042 3.544-.802 1.009-.21.963-.199zm1.356-1.463-2.568.48-1.002.209-3.586.811-4.726 1.023c-1.877.317-3.88.474-6.171.474A59.83 59.83 0 0 1 0 23.562l3.261 5.364-3.185 5.211 2.629.062c2.291 0 4.295-.156 6.171-.474l4.726-1.023 3.585-.811 1.002-.208 3.644-.607.244-.019.706-.031.05-.002.722-.011.58.015-3.346-7.457c-.205-.777-.231-1.63-.104-2.545.017-.131.049-.264.073-.396zm36.63 3.43.567.003-2.113 3.993-.333.628.389.596 1.831 2.801-.342-.001c-2.26 0-4.277.159-6.166.485l-4.479.985-.167.041-3.421.791-.927.198-.049.011-3.57.592-1.358.042c-.331 0-.647-.008-.945-.025l-.631-.044-.557-1.063-4.004-8.213a8.11 8.11 0 0 0 .702.356c.268.122.553.232.857.334l.888.252.934.185.189.023.122.016.026.003.567.073.781.057 1.071.028.735-.011.041-.002h.008l.715-.031.198-.016.062-.006c1.256-.1 2.543-.377 3.677-.622l.141-.03.814-.173 3.509-.811.141-.034 4.344-.958c1.748-.304 3.63-.451 5.754-.451zm-29.526-2.096 6.18 12.673.854 1.634.115.014.511.067.724.052 1.006.026 1.428-.044c1.235-.075 2.515-.35 3.754-.617l.968-.206 3.463-.801 4.564-1.009c1.813-.313 3.748-.467 5.96-.467l2.612.064-3.092-4.73 3.019-5.705-2.539-.062c-2.212 0-4.148.154-5.96.468l-4.564 1.009-3.463.801-.968.206-3.519.598-.235.019-.681.03-.048.002-.697.011a18.78 18.78 0 0 1-1.006-.026l-.723-.052-.511-.066-.17-.022-.18-.021-.825-.165-.784-.223-.736-.287-.686-.355a3.25 3.25 0 0 1-.498-.366 1.52 1.52 0 0 1-.273-.336c-.01-.017-.025-.034-.034-.052-.017-.03-.038-.062-.051-.094-.012-.019-.019-.038-.027-.058a.87.87 0 0 0-.104-.369 1.49 1.49 0 0 0-.318-.393c-.137-.122-.311-.248-.515-.37s-.44-.24-.71-.359a7.91 7.91 0 0 0-.763-.291l-.472-.129z" fill="#41464a"/><path d="M36.088 38.138a4.8 4.8 0 0 0-1.366.198l-.786-1.624-.605-1.274-1.334-2.732L32 32.7l-.673-1.384-.001.003-6.764-13.878c-.262-.541-.956-.594-1.28-.064l-.255.424-.566 1.108c-.393.867-.673 1.725-.787 2.545-.09.651-.072 1.257.074 1.81.256.97 3.023 6.706 3.822 8.2l.792 1.42 1.722 2.817.567.87.157.235-.957 2.03a4.74 4.74 0 0 0-2.49-.701 4.77 4.77 0 0 0-4.768 4.768 4.77 4.77 0 0 0 4.768 4.768 4.77 4.77 0 0 0 4.768-4.768c0-1.279-.504-2.44-1.323-3.296l1.124-2.384a1.05 1.05 0 0 0-.073-.994l-.212-.316-.558-.856-1.693-2.77-.773-1.387c-.758-1.419-3.494-7.083-3.72-7.943-.102-.387-.115-.838-.046-1.342.096-.69.341-1.445.691-2.215l.311-.685 8.715 17.91-.02.03.051.034 1.029 2.125a4.765 4.765 0 0 0-2.311 4.087 4.77 4.77 0 0 0 4.768 4.768 4.77 4.77 0 0 0 4.768-4.768 4.77 4.77 0 0 0-4.769-4.767zm-7.152 4.768a3.576 3.576 0 1 1-7.152 0 3.576 3.576 0 0 1 7.152 0zm7.152 3.576a3.575 3.575 0 1 1 0-7.152 3.575 3.575 0 1 1 0 7.152zm4.539-24.917c-.08-1.096-1.141-3.725-1.845-4.278-.973-.764-1.664.241-1.664.241l-3.352 7.114s1.224.453 3.031.513 3.031-.273 3.031-.273.143-.273.475-1.152.385-1.33.324-2.163zm-1.248 1.72c-.205.615-.294.677-.294.677s-.597.169-2.014.169-1.845-.169-1.845-.169l2.71-5.794s.098-.303.276 0 .891 1.417 1.221 2.639.152 1.863-.053 2.478zM8.126 16.59a.87.87 0 0 0 .406-.528.92.92 0 0 0-.088-.66L3.608 7.04a.87.87 0 0 0-1.204-.345.87.87 0 0 0-.302 1.216l4.837 8.362v-.001a.86.86 0 0 0 1.188.318zm11.802-4.181a.87.87 0 0 0 .635-.623.79.79 0 0 0-.004-.434l-2.37-9.359h-.001a.87.87 0 0 0-1.052-.615.87.87 0 0 0-.636 1.039l2.37 9.359h.001a.87.87 0 0 0 1.056.632zm12.499-.82a.87.87 0 0 0 .87-.644l.054-.202.256-9.653a.87.87 0 0 0-.848-.894.87.87 0 0 0-.894.848l-.256 9.653a.86.86 0 0 0 .818.892zm12.26 2.601a.854.854 0 0 0 .661-.053.86.86 0 0 0 .426-.509l2.869-9.229V4.4a.87.87 0 0 0-.581-1.058.884.884 0 0 0-1.092.573l-2.869 9.229a.894.894 0 0 0 .586 1.046z" fill="#3fb870"/></svg>