<svg xmlns="http://www.w3.org/2000/svg" xmlns:xlink="http://www.w3.org/1999/xlink" width="415" height="317" fill="none"><style>.B{stroke-linejoin:round}.C{fill:#fff}.D{stroke:#263238}.E{fill:#25c16f}.F{fill:#263238}.G{stroke-linecap:round}.H{opacity:.5}.I{stroke-miterlimit:10}.J{opacity:.17}.K{stroke-width:3}</style><use xlink:href="#B" class="E"/><use xlink:href="#B" opacity=".7" class="C"/><use xlink:href="#C" class="E"/><use xlink:href="#C" opacity=".6" class="C"/><g class="E"><use xlink:href="#D"/><use xlink:href="#E"/><use xlink:href="#F"/></g><g class="C H"><use xlink:href="#D" class="H"/><use xlink:href="#E" class="H"/><use xlink:href="#F" class="H"/></g><use xlink:href="#G" class="E"/><use xlink:href="#G" opacity=".4" class="C"/><g class="B D G"><path d="M41.92 232.24c13.08 38.65 13.08 66 13.08 66s-15.46.6-31.52-11.29m24.98-33.9a231.246 231.246 0 0 1 10.7-33.89"/><path d="m87.11 230.46-33.3 49.35s-22.6-19-30.33-29.73M54.4 291.7s35.08-16.65 49.36-26.16"/></g><g class="E"><use xlink:href="#H"/><use xlink:href="#I"/><use xlink:href="#J"/></g><g class="C H"><use xlink:href="#H" class="H"/><use xlink:href="#I" class="H"/><use xlink:href="#J" class="H"/></g><use xlink:href="#K" class="E"/><use xlink:href="#K" opacity=".4" class="C"/><g class="B D G"><path d="M373.38 232.24c-13.08 38.65-13.08 66-13.08 66s15.46.6 31.51-11.29m-24.97-33.9a232.13 232.13 0 0 0-10.71-33.89"/><path d="m328.19 230.46 33.29 49.35s22.6-19 30.33-29.73m-30.92 41.62s-35.08-16.65-49.35-26.16"/></g><path d="M138.7 51.04 130.53 38H58.57v234.67h296.2V51.04H138.7z" class="F"/><path d="M352.82 57.02H60.77v210.92h292.05V57.02z" class="C"/><g fill="#000"><path d="M354.25 55.21h-6.78v214.33h6.78V55.21z" class="J"/><path d="M354.25 184.8h-6.78v83h6.78v-83z" class="J"/></g><g class="D"><path d="M353.2 54.17H59.61v11.47H353.2V54.17Z" class="E I"/><path d="M352.82 57.02H60.77v210.92h292.05V57.02z" class="B"/></g><path d="M212.93 76.7H192.5a1.813 1.813 0 0 1-1.273-.527 1.797 1.797 0 0 1-.39-.584 1.81 1.81 0 0 1-.137-.689 1.806 1.806 0 0 1 .134-.692 1.79 1.79 0 0 1 .39-.587 1.8 1.8 0 0 1 1.276-.531h20.43a1.8 1.8 0 0 1 1.276.531 1.79 1.79 0 0 1 .39.587c.09.219.135.455.134.692a1.81 1.81 0 0 1-.137.689 1.797 1.797 0 0 1-.974.974 1.81 1.81 0 0 1-.689.137zm40.86 0h-20.43a1.81 1.81 0 0 1-1.8-1.8c0-.478.189-.937.527-1.276a1.81 1.81 0 0 1 1.273-.534h20.43a1.81 1.81 0 0 1 1.81 1.81 1.81 1.81 0 0 1-1.81 1.8zm40.87 0h-20.43a1.81 1.81 0 0 1-1.81-1.8 1.81 1.81 0 0 1 1.81-1.81h20.43a1.81 1.81 0 0 1 1.273.534c.338.339.527.798.527 1.276a1.81 1.81 0 0 1-1.8 1.8zm40.86 0h-20.43a1.813 1.813 0 0 1-1.273-.527 1.797 1.797 0 0 1-.39-.584 1.79 1.79 0 0 1-.137-.689 1.806 1.806 0 0 1 .134-.692 1.79 1.79 0 0 1 .39-.587 1.8 1.8 0 0 1 1.276-.531h20.43a1.81 1.81 0 0 1 1.273.534c.338.339.527.798.527 1.276a1.81 1.81 0 0 1-1.8 1.8z" class="J" fill="#000"/><g class="B D G"><path d="M88.37 162.79h30.87" class="K"/><path d="M118.69 167.6h3.37m-22.7 0h17.29m-30.64 0h11.52m10.37 4.81h14.16m-21.89 0h5.5m-19.66 0h11.72m-4.07 4.8h28.4m-36.05 0h5.01m24.01 4.81h7.03m-20.46 0h10.98m-26.57 0h13.35m-1.63 4.81h24.33m-36.05 0h9.48"/><path d="M158.77 162.79h30.87" class="K"/><path d="M189.09 167.6h3.37m-22.7 0h17.29m-30.64 0h11.52m10.37 4.81h14.16m-21.89 0h5.5m-19.66 0h11.72m-4.07 4.8h28.4m-36.05 0h5.01m24.01 4.81h7.03m-20.46 0h10.98m-26.57 0h13.35m-1.63 4.81h24.33m-36.05 0h9.48"/><path d="M229.17 162.79h30.87" class="K"/><path d="M259.49 167.6h3.37m-22.7 0h17.29m-30.64 0h11.52m10.37 4.81h14.16m-21.89 0h5.5m-19.66 0h11.72m-4.07 4.8h28.4m-36.05 0h5.01m24.01 4.81h7.03m-20.46 0h10.98m-26.57 0h13.35m-1.63 4.81h24.33m-36.05 0h9.48"/><path d="M299.57 162.79h30.87" class="K"/><path d="M329.89 167.6h3.37m-22.7 0h17.29m-30.64 0h11.52m10.37 4.81h14.16m-21.89 0h5.5m-19.66 0h11.72m-4.07 4.8h28.4m-36.05 0h5.01m24.01 4.81h7.03m-20.46 0h10.98m-26.57 0h13.35m-1.63 4.81h24.33m-36.05 0h9.48"/></g><path d="M342.77 147.3h-272V91.19h272v56.11z" class="E"/><path opacity=".7" d="M342.77 147.3h-272V91.19h272v56.11z" class="C"/><path d="M273.94 147.3H139.65V91.19h134.29v56.11z" class="E"/><path opacity=".92" d="M273.94 147.3H139.65V91.19h134.29v56.11z" class="C"/><path d="M246.5 107.45h9.15m-61.53 0h46.87m-83.05 0h31.21m28.13 4.81h38.37m-59.33 0h14.89m-53.27 0h31.77m-11.03 4.81h76.97m-97.71 0h13.57m65.07 4.81h19.07m-55.47 0h29.78m-72.02 0h36.18m-4.41 4.8h65.94m-97.71 0h25.7" class="B D G"/><path d="M342.77 267.24h-272v-56.11h272v56.11z" class="E"/><path opacity=".7" d="M342.77 267.24h-272v-56.11h272v56.11z" class="C"/><g class="B D F"><path d="m310.58 232.48-18.43 7.19c-2.5.79-2.65 1.87-2.65 5.3s.47 18.9.47 20.15-.16 3.59-.16 3.59H342s-3.44-14-5.47-20.61-1.09-7.19-4.68-9.37-13-5.31-15-5.78a38.83 38.83 0 0 0-6.27-.47z"/><path d="M311.36 230.76s-3.75-.31-5.31 2.82L300.74 244l4.53 2.81-5.27 2.69c.88 3.858 1.975 7.664 3.28 11.4a71.49 71.49 0 0 0 3.12 7.19s7.6-8.59 10.6-11.25a23.86 23.86 0 0 0 4.84-6.56l-3.9-3.59 6.72-.78s-1.72-8.74-3.91-12.33-9.39-2.82-9.39-2.82z"/></g><path d="m303.69 261 .87 2.17m-.3-25.7-3.52 6.53 4.53 2.81-4.85 2.75 2.55 9.35m19.03-24.4 2.63 11.4-6.72.78 3.9 3.59-10.61 12.34M331.82 252l-2.81 17.34m-35.76-20.46s-.31 10.46-.16 13.74c.124 2.079.545 4.13 1.25 6.09" stroke="#fff" stroke-width=".5" class="G B"/><g class="D"><g class="I"><path d="m322.14 256.22 2.65-3.59 2.19 3.59h-4.84z" class="C"/><path d="M325.26 221.86s2.65-.31 3.28 3.6-1.25 8.9-7.5 8.9-5.77-4.69-5.62-8.12 9.84-4.38 9.84-4.38z" class="F"/><path d="m309.8 228.27-.47 9.68c-.31 5.16-2.81 12.18-2.81 18.11a91.086 91.086 0 0 0 .47 9.84s5.15-10 7.49-15.77 5-22.49 5-22.49l-9.68.63z" class="C"/></g><g class="B"><path d="M325.1 218a17.25 17.25 0 0 0 1.88-7.34c0-3.9-.78-9.21-5.31-11.56s-13.28-.78-15.46 3.75a18.64 18.64 0 0 0-2 9.37 22.17 22.17 0 0 0 1.09 5.15s.63-3 4.84-4.52 8.75-3.13 10.93-2 4.03 7.15 4.03 7.15z" class="F"/><path d="M305.43 216.4s-1.88-2.81-2.66-.78.32 5 1.56 5.62 1.88.31 1.88.31l-.78-5.15zm19.67.47s2.19-2.19 2.19-.16a9 9 0 0 1-2 5.15c-.94 1.25-1.41.63-1.41.63l1.22-5.62z" class="C"/></g><g class="I"><path d="m321.39 207.88 1.55-4.37a.683.683 0 0 0-.415-.875.683.683 0 0 0-.875.415l-1.3 3.65a10.34 10.34 0 0 0-4.171-.12 10.324 10.324 0 0 0-3.879 1.54l-7.34 5s.16 8.9 1.87 12.18 4.69 7.18 7.19 7.18 6.87-5.46 8.59-7.18 2.81-8.43 2.81-10.62c0-1.57-2.58-4.99-4.03-6.8z" class="C"/><path d="M315.24 248a17.04 17.04 0 0 1-7.48-1 46.39 46.39 0 0 0-1.24 9.13 91.086 91.086 0 0 0 .47 9.84s5.15-10 7.49-15.77c.25-.68.52-1.43.76-2.2zm-73.81-23.81a111 111 0 0 0-11.85 2c-4.57 1.18-6.77 1.69-6.77 3.89s-.51 11.68-2 15.92-3.22 10.33-3.22 12.53 3.22 11.51 3.22 11.51h5.92s-2.2-10.84-2.2-11.85 3.05-10 3.05-10l.17 22.18h31l-.33-21.17s2.7 8.64 2.7 10.16-1 11.52-1 11.52H266s2.88-11 2.71-14.9-3-16.26-3.38-20 1.86-5.76-2.2-8.3-13.38-4.06-15.41-4.23c-2.116.042-4.222.29-6.29.74z" class="E"/></g><path d="m227.55 248.24.51-8.47-1.87-6.43m32.18 5.08v10.83m.16-7.78 2.71-4.07m-16.93-1.69-1.01 34.37" class="B G"/><path d="M243.8 220.13a6.6 6.6 0 0 0-4.06 1.69c-1.86 1.7-2.54 8.3-2.54 8.3l6.94-2c1.01-.31 10 1.69 10 1.69s-.84-5.92-3.21-8.46-7.13-1.22-7.13-1.22z" class="B F"/><path d="M241.43 214.71s1.36 2 1.36 8 .67 12.19 1.52 13 4.4-8 4.4-12a18.38 18.38 0 0 1 1.87-7.62s-4.24-2.88-6.44-3.22a2.397 2.397 0 0 0-1.718.386 2.4 2.4 0 0 0-.992 1.454z" class="B C"/><path d="M243.06 229.31c.27 3.29.73 5.88 1.25 6.4s2.15-2.78 3.27-6.32a14.37 14.37 0 0 1-4.52-.08zm8.7-30.85s1 .34 2.88-1.36 1-4.91.17-4.23c-.53.432-.989.945-1.36 1.52a5.48 5.48 0 0 0-4.57-3.72c-3.55-.34-7.79 4.57-7.79 4.57s-7.78 5.76-6.94 10.33 5.25 8.63 7.28 9.14 5.76-3.21 5.08-6.43-1.18-8 0-8.47a48.17 48.17 0 0 1 5.25-1.35z" class="F B"/><path d="M241.09 212s-2.87-2-3.55-.5.85 4.23 2.71 5.07 3.55-1.86 3.55-1.86 5.93 4.74 10 4.91 4.24-3.05 3.56-9.14-2.71-10.84-4.23-12.53-7.45-.17-9.32 1.35-3 2.88-1.18 3.22 3.55 1 1.86 2.88-2.54 1.18-2 2.54 2.71 2.71.68 3.39l-2.08.67z" class="B C"/><path d="M166.68 221s-21.34 2.54-22 4.4-8.46 20-7.28 21.67 3.56 2 5.42 2a6.26 6.26 0 0 0 3.56-1.52l-5.42 23h39.28l1.19-16.09s4.57 2 7.62 1.7 2.37-2.71 1.69-7.28-1-16.26-2.2-18.46-15.58-8.3-15.58-8.3l-6.28-1.12z" class="B F"/></g><path d="M181.75 248.58v-10.5l.84-2.03m-35.05 3.72 1.7-7.11-.34-1.52" stroke="#fff" class="G B"/><g class="D E I"><path d="M152 271.27s3.21-13.89 4.74-22.52 7.9-27.75 7.9-27.75l9.83 2.71s-6.61 19.3-8.3 27.6-3.11 20.06-3.11 20.06l-11.06-.1z"/><path d="M166 219s-2.88 0-3.9 2-2.37 9.82-2.37 9.82 6.1-2.71 6.61-2.71 2.88.17 4.06 1.52 3.73 4.57 3.73 4.57 3.89-6.26 2.88-10.32a6.575 6.575 0 0 0-2.17-3.415 6.58 6.58 0 0 0-3.76-1.495L166 219z"/></g><g class="B C D"><path d="M165 214.54s-.34 11.86 0 15.24.85 4.23.85 4.23 2.88-4.74 3.72-6.43 3.39-3.56 4.58-5.08 2-7.28 2-7.28-4.4 3.39-6.77 2.54a12.6 12.6 0 0 1-4.38-3.22z"/><path d="M172 193.11c-2.88.42-5.69 1.86-6.5 4.67-.68 2.37-1 10.16-1.18 14.05s1.86 8.81 3.55 9.32a8.455 8.455 0 0 0 4.4.34c.85-.34 4.75-5.59 5.76-6.61s4.06-10.5 4.06-13.88a7.68 7.68 0 0 0-1.342-4.689 7.674 7.674 0 0 0-3.898-2.931 11.676 11.676 0 0 0-4.85-.27z"/><path d="M180.39 209s2.71-2.38 2 .67a6.387 6.387 0 0 1-1.218 2.496 6.39 6.39 0 0 1-2.162 1.744l1.38-4.91zm-15.75-3.26s-2-1.86-2 .68a8 8 0 0 0 1.7 4.57l.3-5.25z"/></g><path d="M180.39 209a34.46 34.46 0 0 0 1.69-8 7.674 7.674 0 0 0-1.342-4.689 7.67 7.67 0 0 0-3.898-2.931 11.676 11.676 0 0 0-4.85-.27c-2.88.42-5.69 1.86-6.5 4.67a55.5 55.5 0 0 0-.91 8.49c.86-.67 2.65-2.31 2.27-4.26-.51-2.54-1.53-3.72.33-4.91s4.07.51 7.12 1.53 6.09-.34 6.94.5-2.71 4.41-2.2 5.76 1.69 2.88 1.35 4.07v.04z" class="B D F"/><g class="C B D"><path d="M156 241.47s-2.54-3.56-4.23-3.73-5.76 3.73-5.76 3.73H156zm16.09.33h2.38l.5 4.75-2.54-.68-.34-4.07z"/><path d="m174.47 241.8 4.23 1.87 1.01 5.25-4.74-2.37-.5-4.75z"/></g><use xlink:href="#L" class="F"/><g class="D"><g class="B"><use xlink:href="#L" class="G"/><path d="m172.09 241 .34 4.91-24.38 5.25c-6.6 1.19-10.16.33-11.17-2.71s2.37-6.78 3.89-7.62 31.32.17 31.32.17z" class="F"/></g><path d="m106.69 229.39 9.49 2.54c2.71.85 3.55 1.86 3.55 3.89s-1.52 11-1.52 12.36v9.15c0 2.54 2.54 11.85 2.54 11.85h-33s-3.72-14.22-6.26-22-2.88-10.5-.34-11.69a167.35 167.35 0 0 1 18.45-5.58 50.813 50.813 0 0 1 7.09-.52z" class="E I"/><path d="M116.52 240.56s2 9.32 1.35 12.7-5.25 16.26-5.25 16.26" class="B G"/></g><use xlink:href="#M" class="E"/><g class="D"><use xlink:href="#M" class="I"/><g class="B"><path d="m112.68 212.9 1.11 34.49h-10.01v-31.52l8.9-2.97z" class="F"/><g class="C"><path d="M99.75 237.69s2.88 13 4.07 16.93 1.35 13 1 14.22 4.23 0 4.23 0l1.87-14.22c.68-5.22-1.36-15.07-1.36-15.07l-2.2-8.64-8.3 1.53.69 5.25z"/><path d="M107 223.46a21.067 21.067 0 0 0 .17 8.13c1 3.73 3.73 10.5 1.36 12.36s-5.59.85-7.28-2.54-3.22-11.85-3.22-18.79.68-8.13 3.05-8.13 5.92 8.97 5.92 8.97z"/></g><path d="M102.12 220.25a14 14 0 0 1-5.25 2.87c-2.54.51-3.89-6.26-4.23-13s1.36-10.5 4.91-12.19 12.19-.85 15.58.5 7.45 3.56 7.45 7.11-4.58 6.46-5.93 7.26-4.57 2-6.6 4.06a18.884 18.884 0 0 1-5.93 3.39z" class="F"/><path d="M102.12 220.25s2 5.08 5.76 5.24 8-8.46 8.13-12.19-3.73-10.16-3.73-10.16-6.6 15.07-10.16 17.11z" class="C"/></g></g><path d="m101.11 212.63.33 36.57H90.1l2.54-42.5" class="F"/><path d="m101.11 212.63.33 36.57H90.1l2.54-42.5" class="B D G"/><defs><path id="B" d="M339 42.86S296.31-1.25 228.72.86 103.49 45.69 55.82 79.13s-60.47 85.4-32.72 125.95 71.86 23.48 128.06 49.8 66.84 41.27 129.49 34.87 110.29-71.86 103.17-141.59S339 42.86 339 42.86z"/><path id="C" d="M355.36 311.3c0 2.94-66 5.31-147.33 5.31s-147.34-2.37-147.34-5.31 66-5.3 147.34-5.3 147.33 2.37 147.33 5.3z"/><path id="D" d="M68.67 145.78c.06 0-.69-3.73-.77-4-.86-2.66-4.09-7.3-7.23-7.3-.521.016-1.032.142-1.502.368s-.886.55-1.222.948-.586.862-.731 1.362a3.72 3.72 0 0 0-.114 1.542c.23 2.2 2.21 4.08 4 5.16 2.1 1.31 7.57 1.92 7.57 1.92z"/><path id="E" d="M74.74 120.66c-2.95 1.06-4.41 6.52-4.32 9.32 0 .24.56 4 .62 4h.06l-.74 2.8c-.44 1.88-.92 4-1.29 6.36a65.734 65.734 0 0 0-.84 7.64 49.24 49.24 0 0 0 .29 8.6.44.44 0 0 1 0 .1c-.38-.83-1.54-3.12-1.65-3.29-1.54-2.34-5.88-6-8.91-5.13a3.716 3.716 0 0 0-2.272 1.984 3.72 3.72 0 0 0-.047 3.016c.8 2.07 3.2 3.35 5.21 3.93 2.27.64 7.33-.12 7.73-.18a67.255 67.255 0 0 0 1.86 8.56c.47 1.64 1 3.28 1.52 4.91-.35-.71-.68-1.34-.73-1.42-1.54-2.34-5.88-6-8.91-5.13a3.716 3.716 0 0 0-2.272 1.984 3.72 3.72 0 0 0-.047 3.016c.8 2.06 3.2 3.35 5.21 3.92s6.37 0 7.51-.14l.64 1.87 3 8.94c.33 1 .61 2.08.9 3.12-.31-.63-.59-1.16-.64-1.23-1.53-2.35-5.88-6-8.9-5.13a3.713 3.713 0 0 0-2.279 1.981 3.71 3.71 0 0 0-.051 3.019c.8 2.06 3.21 3.35 5.22 3.92s5.94.07 7.3-.12c.27 1.07.54 2.15.75 3.2.12.72.29 1.4.38 2.14l.3 2.14.4 4.12.2 2.72-1-3.23a14.416 14.416 0 0 0-4.8-5.46 5.114 5.114 0 0 0-.4-.72 3.703 3.703 0 0 0-2.541-1.639 3.72 3.72 0 0 0-2.919.789c-2.37 2.05-1.78 7.67-.69 10.25.06.15 1 1.73 1.52 2.71l-1.27-1.58c-.88-1.07-1.78-2.11-2.74-3.23l-1.47-1.59c-.48-.54-1.05-1.05-1.58-1.59a62.43 62.43 0 0 0-4-3.52c.94-.77 4.21-3.53 5.15-5.41s1.61-4.51.63-6.5a3.715 3.715 0 0 0-.917-1.241 3.7 3.7 0 0 0-1.343-.76 3.715 3.715 0 0 0-3 .341c-2.66 1.66-2.93 7.31-2.24 10 0 .17.76 2.07 1.17 3.1-.83-.69-1.65-1.37-2.51-2a288.1 288.1 0 0 0-7.6-5.64l-2.33-1.73c.33-.27 4.29-3.47 5.35-5.58.94-1.87 1.61-4.51.63-6.49a3.71 3.71 0 0 0-.916-1.248 3.726 3.726 0 0 0-1.346-.765 3.72 3.72 0 0 0-1.541-.149 3.724 3.724 0 0 0-1.468.492c-2.65 1.67-2.92 7.31-2.23 10 .05.2 1.08 2.92 1.38 3.6-1.71-1.27-3.4-2.55-5-3.88a65.96 65.96 0 0 1-6.2-5.78c.15-.12 4.3-3.45 5.38-5.6.94-1.87 1.61-4.51.63-6.5a3.711 3.711 0 0 0-5.25-1.65c-2.66 1.67-2.92 7.32-2.24 10 .05.18.83 2.26 1.23 3.23l-.15.1a47.98 47.98 0 0 1-5.1-6.84 59.08 59.08 0 0 1-2.24-3.93c.84-.54 4.63-3 5.82-4.88s2.1-4.31 1.34-6.39a3.714 3.714 0 0 0-.771-1.32 3.72 3.72 0 0 0-1.238-.896 3.7 3.7 0 0 0-1.494-.322 3.722 3.722 0 0 0-1.497.308c-2.82 1.36-3.71 7-3.32 9.72 0 .15.4 1.66.7 2.75l-.89-1.76a98.18 98.18 0 0 1-2.55-5.94c-.39-1-.73-2-1-2.84.54-.95 2.69-4.84 2.89-7s-.12-4.79-1.75-6.29a3.72 3.72 0 0 0-1.305-.831 3.71 3.71 0 0 0-1.53-.228 3.72 3.72 0 0 0-1.491.414 3.723 3.723 0 0 0-1.193.985c-1.87 2.51-.08 7.88 1.54 10.16a103.73 103.73 0 0 0 2.71 3v-.06l.94 2.74c.67 1.81 1.44 3.85 2.43 6a65.686 65.686 0 0 0 3.52 6.84 48.54 48.54 0 0 0 5 7l.07.07c-.78-.48-3-1.75-3.19-1.83-2.57-1.11-8.2-1.73-10.26.63a3.71 3.71 0 0 0-.803 2.915 3.703 3.703 0 0 0 1.634 2.545c1.8 1.28 4.52 1 6.51.4 2.25-.71 6-4.14 6.35-4.41a66.228 66.228 0 0 0 6.28 6.11 101.03 101.03 0 0 0 4 3.26l-1.4-.78c-2.57-1.11-8.19-1.73-10.25.63a3.702 3.702 0 0 0-.718 1.37 3.7 3.7 0 0 0-.095 1.544 3.694 3.694 0 0 0 1.632 2.546c1.81 1.28 4.52 1 6.52.4s5.31-3.5 6.18-4.27l1.56 1.22 7.45 5.79c.85.69 1.66 1.39 2.48 2.1l-1.22-.68c-2.57-1.1-8.19-1.73-10.25.64a3.7 3.7 0 0 0-.813 2.914 3.7 3.7 0 0 0 .544 1.447 3.69 3.69 0 0 0 1.088 1.099c1.81 1.28 4.52 1 6.52.39s5-3.22 6-4.12c.81.74 1.63 1.49 2.39 2.25.5.53 1 1 1.5 1.57l1.43 1.63 2.61 3.21 1.67 2.16c-.84-.69-2.51-2-2.67-2.11-2.37-1.49-7.83-2.95-10.23-.93a3.72 3.72 0 0 0-.909 1.249 3.71 3.71 0 0 0 0 3.022c.212.476.522.901.909 1.249 1.59 1.54 4.31 1.7 6.38 1.38 2.27-.35 6.39-3 6.9-3.37l2.56 3.44c2.77 3.83 4.93 7.13 6.41 9.45l.15.24 1.92-.93-.3-.46c-1.55-2.31-3.8-5.59-6.69-9.4-.9-1.21-1.9-2.47-2.93-3.77a41.332 41.332 0 0 0 3-3.68c2.2.86 6.79.89 7.38.89l.23 4.29c.2 4.73.18 8.67.14 11.42v.32l2.11-1c0-2.74-.11-6.44-.38-10.82l-.37-4.76c.58-.14 5.35-1.37 7.15-2.81 1.64-1.3 3.36-3.42 3.3-5.63a3.71 3.71 0 0 0-1.21-2.77 3.712 3.712 0 0 0-1.334-.781 3.72 3.72 0 0 0-1.536-.169c-3.12.4-5.72 5.41-6.23 8.17 0 .16-.17 2-.23 3.09l-.19-2c-.14-1.37-.32-2.73-.5-4.2l-.35-2.14c-.11-.72-.3-1.46-.45-2.19a74.63 74.63 0 0 0-1.35-5.13c1.2-.12 5.46-.62 7.28-1.67s3.83-2.87 4.11-5.07a3.71 3.71 0 0 0-.079-1.542 3.703 3.703 0 0 0-.7-1.376 3.7 3.7 0 0 0-1.2-.972 3.7 3.7 0 0 0-1.491-.4c-3.14-.08-6.48 4.48-7.4 7.13-.06.16-.51 2.13-.73 3.22-.32-1-.62-2.05-1-3.08-1-3-2.13-5.93-3.23-8.9l-1-2.73c.43 0 5.5-.52 7.54-1.7 1.81-1 3.83-2.87 4.11-5.07a3.7 3.7 0 0 0-.076-1.543 3.697 3.697 0 0 0-.7-1.378 3.69 3.69 0 0 0-1.201-.972 3.701 3.701 0 0 0-1.494-.397c-3.14-.08-6.48 4.49-7.4 7.13a75.14 75.14 0 0 0-.84 3.77c-.72-2-1.42-4-2-6a68.971 68.971 0 0 1-2-8.24c.2 0 5.5-.5 7.59-1.7 1.81-1.05 3.83-2.88 4.11-5.08a3.71 3.71 0 0 0-.782-2.922 3.71 3.71 0 0 0-2.698-1.368c-3.13-.08-6.47 4.49-7.39 7.13-.06.17-.55 2.34-.76 3.37h-.18a47.788 47.788 0 0 1-.48-8.51c0-1.56.15-3.06.3-4.51 1 0 5.55 0 7.55-.86s4.12-2.44 4.64-4.59c.139-.504.17-1.031.09-1.547a3.729 3.729 0 0 0-1.644-2.548 3.72 3.72 0 0 0-1.447-.555c-3.11-.42-6.93 3.75-8.13 6.27-.07.14-.58 1.61-.94 2.69l.23-2c.32-2.35.75-4.48 1.15-6.37l.7-2.93c1-.5 4.92-2.55 6.27-4.22s2.53-4.06 2-6.21a3.7 3.7 0 0 0-.644-1.431 3.71 3.71 0 0 0-2.68-1.494 3.725 3.725 0 0 0-1.556.205z"/><path id="F" d="M18.06 169c2.45-.1 7.35-2.62 7.36-2.62s-2.64-2.72-2.83-2.88c-2.19-1.74-7.45-3.83-10.06-2.09a3.71 3.71 0 0 0-1.546 2.595 3.71 3.71 0 0 0 .896 2.885c1.41 1.71 4.12 2.19 6.18 2.11z"/><path id="G" d="M46.67 230.35s14.87-35.84 23.19-34.28-14.27 57.14-14.27 57.14 26.16-49.35 44-49.35-6.54 54.54-29.13 72.72c0 0 35.67-38.44 56.49-30.12s-41.63 47.27-41.63 47.27 36.27-11.43 32.11-2.6S102 301.52 102 301.52l41 2.08H.29l32.11-3.12S-.9 283.86 8 277.1s28.54 7.79 28.54 7.79-33.89-37.4-27.35-51.42 35.68 25.45 35.68 25.45-23.79-50.38-19-59.22 20.8 30.65 20.8 30.65z"/><path id="H" d="M346.62 145.78c-.06 0 .7-3.73.77-4 .86-2.66 4.1-7.3 7.23-7.3a3.725 3.725 0 0 1 1.502.368 3.72 3.72 0 0 1 1.222.948 3.713 3.713 0 0 1 .846 2.904c-.23 2.2-2.21 4.08-4 5.16-2.1 1.31-7.57 1.92-7.57 1.92z"/><path id="I" d="M340.55 120.66c2.95 1.06 4.42 6.52 4.32 9.32 0 .24-.56 4-.61 4h-.06l.73 2.8c.44 1.88.92 4 1.29 6.36.429 2.528.709 5.079.84 7.64.159 2.87.062 5.748-.29 8.6a.42.42 0 0 0 0 .1c.39-.83 1.55-3.12 1.65-3.29 1.54-2.34 5.88-6 8.91-5.13a3.72 3.72 0 0 1 1.35.748 3.71 3.71 0 0 1 .927 1.234 3.69 3.69 0 0 1 .343 1.504 3.7 3.7 0 0 1-.3 1.514c-.8 2.07-3.2 3.35-5.21 3.93-2.27.64-7.33-.12-7.73-.18a65.67 65.67 0 0 1-1.86 8.56c-.467 1.64-.973 3.277-1.52 4.91.35-.71.68-1.34.73-1.42 1.54-2.34 5.89-6 8.91-5.13.498.152.957.407 1.35.748a3.71 3.71 0 0 1 .927 1.234 3.69 3.69 0 0 1 .343 1.504 3.7 3.7 0 0 1-.3 1.514c-.8 2.06-3.2 3.35-5.21 3.92s-6.37 0-7.51-.14l-.63 1.87-3 8.94c-.33 1-.62 2.08-.91 3.12l.64-1.23c1.54-2.35 5.88-6 8.9-5.13a3.72 3.72 0 0 1 1.35.748 3.71 3.71 0 0 1 1.275 2.737 3.7 3.7 0 0 1-.295 1.515c-.8 2.06-3.21 3.35-5.22 3.92s-5.94.07-7.3-.12c-.27 1.07-.53 2.15-.74 3.2-.13.72-.3 1.4-.39 2.14l-.3 2.14-.4 4.12-.2 2.72 1.05-3.23a14.496 14.496 0 0 1 4.8-5.46 4.23 4.23 0 0 1 .41-.72 3.69 3.69 0 0 1 2.535-1.644 3.7 3.7 0 0 1 1.542.086 3.71 3.71 0 0 1 1.373.708c2.38 2.05 1.78 7.67.69 10.25-.06.15-.95 1.73-1.52 2.71l1.28-1.58c.87-1.07 1.77-2.11 2.73-3.23l1.47-1.59c.48-.54 1.06-1.05 1.59-1.59a70.66 70.66 0 0 1 3.95-3.52c-.93-.77-4.21-3.53-5.15-5.41s-1.61-4.51-.63-6.5a3.71 3.71 0 0 1 .918-1.245 3.717 3.717 0 0 1 4.352-.415c2.65 1.66 2.92 7.31 2.23 10 0 .17-.76 2.07-1.17 3.1.83-.69 1.65-1.37 2.51-2 2.48-1.91 5.05-3.77 7.6-5.64l2.33-1.73c-.33-.27-4.29-3.47-5.35-5.58-.93-1.87-1.61-4.51-.63-6.49a3.715 3.715 0 0 1 2.262-2.013 3.702 3.702 0 0 1 3.008.343c2.66 1.67 2.92 7.31 2.23 10-.05.2-1.08 2.92-1.37 3.6 1.7-1.27 3.39-2.55 5-3.88a66.046 66.046 0 0 0 6.2-5.78c-.15-.12-4.3-3.45-5.38-5.6-.94-1.87-1.61-4.51-.63-6.5.214-.474.526-.898.915-1.244a3.7 3.7 0 0 1 1.343-.763 3.704 3.704 0 0 1 3.002.337c2.66 1.67 2.93 7.32 2.24 10-.05.18-.83 2.26-1.22 3.23a.754.754 0 0 0 .15.1 47.85 47.85 0 0 0 5.09-6.84c.84-1.32 1.56-2.64 2.24-3.93-.84-.54-4.63-3-5.82-4.88s-2.09-4.31-1.34-6.39a3.714 3.714 0 0 1 2.028-2.241 3.71 3.71 0 0 1 3.022.011c2.83 1.36 3.71 7 3.32 9.72 0 .15-.4 1.66-.69 2.75l.88-1.76c1-2.13 1.85-4.15 2.55-5.94.4-1 .73-2 1-2.84-.55-.95-2.69-4.84-2.9-7s.13-4.79 1.76-6.29a3.72 3.72 0 0 1 1.303-.831 3.715 3.715 0 0 1 1.528-.228 3.7 3.7 0 0 1 1.488.414c.462.241.868.577 1.191.985 1.88 2.51.09 7.88-1.53 10.16-.14.2-2.69 3-2.72 3v-.06l-.94 2.74c-.66 1.81-1.43 3.85-2.42 6a67.78 67.78 0 0 1-3.53 6.84 48.486 48.486 0 0 1-5 7l-.07.07c.78-.48 3-1.75 3.19-1.83 2.58-1.11 8.2-1.73 10.26.63a3.71 3.71 0 0 1 .714 1.37 3.72 3.72 0 0 1 .094 1.543 3.714 3.714 0 0 1-1.628 2.547c-1.81 1.28-4.52 1-6.52.4-2.25-.71-6-4.14-6.34-4.41a66.23 66.23 0 0 1-6.28 6.11c-1.29 1.11-2.63 2.19-4 3.26l1.4-.78c2.57-1.11 8.19-1.73 10.25.63a3.7 3.7 0 0 1 .718 1.37 3.71 3.71 0 0 1 .095 1.544 3.7 3.7 0 0 1-.545 1.447 3.69 3.69 0 0 1-1.088 1.099c-1.8 1.28-4.52 1-6.51.4s-5.32-3.5-6.18-4.27c-.53.41-1 .82-1.57 1.22l-7.45 5.79c-.85.69-1.66 1.39-2.48 2.1l1.22-.68c2.57-1.1 8.19-1.73 10.25.64a3.7 3.7 0 0 1 .718 1.37 3.71 3.71 0 0 1 .095 1.544 3.7 3.7 0 0 1-.545 1.447 3.69 3.69 0 0 1-1.088 1.099c-1.81 1.28-4.52 1-6.51.39s-5-3.22-6-4.12c-.81.74-1.63 1.49-2.38 2.25-.51.53-1 1-1.5 1.57l-1.44 1.63-2.61 3.21-1.66 2.16c.83-.69 2.51-2 2.66-2.11 2.37-1.49 7.84-2.95 10.23-.93a3.71 3.71 0 0 1 1.231 2.76 3.71 3.71 0 0 1-1.231 2.76c-1.6 1.54-4.32 1.7-6.38 1.38-2.28-.35-6.4-3-6.91-3.37l-2.56 3.44c-2.77 3.83-4.93 7.13-6.41 9.45 0 .09-.1.16-.15.24l-1.92-.93.3-.46c1.55-2.31 3.81-5.59 6.69-9.4.91-1.21 1.9-2.47 2.93-3.77a39.93 39.93 0 0 1-3-3.68c-2.21.86-6.79.89-7.39.89l-.23 4.29a187.96 187.96 0 0 0-.13 11.42v.32l-2.11-1c0-2.74.11-6.44.39-10.82a157.57 157.57 0 0 1 .37-4.76c-.59-.14-5.36-1.37-7.16-2.81-1.63-1.3-3.35-3.42-3.29-5.63a3.695 3.695 0 0 1 .307-1.516 3.7 3.7 0 0 1 2.235-2.038 3.695 3.695 0 0 1 1.538-.166c3.11.4 5.72 5.41 6.23 8.17 0 .16.16 2 .22 3.09l.2-2c.13-1.37.31-2.73.5-4.2l.34-2.14c.11-.72.3-1.46.45-2.19a74.63 74.63 0 0 1 1.35-5.13c-1.2-.12-5.45-.62-7.28-1.67s-3.83-2.87-4.1-5.07a3.717 3.717 0 0 1 .775-2.921 3.686 3.686 0 0 1 1.201-.972 3.71 3.71 0 0 1 1.494-.397c3.13-.08 6.47 4.48 7.39 7.13.06.16.51 2.13.73 3.22.32-1 .62-2.05 1-3.08 1-3 2.13-5.93 3.23-8.9l1-2.73c-.43 0-5.5-.52-7.54-1.7-1.81-1-3.83-2.87-4.11-5.07a3.715 3.715 0 0 1 .779-2.918 3.708 3.708 0 0 1 1.2-.972 3.69 3.69 0 0 1 1.491-.4c3.14-.08 6.48 4.49 7.4 7.13.07.2.71 3 .84 3.77.72-2 1.43-4 2-6a65.12 65.12 0 0 0 2-8.24c-.2 0-5.49-.5-7.58-1.7-1.82-1.05-3.84-2.88-4.11-5.08a3.717 3.717 0 0 1 .775-2.921 3.686 3.686 0 0 1 1.201-.972 3.71 3.71 0 0 1 1.494-.397c3.13-.08 6.47 4.49 7.39 7.13.06.17.56 2.34.77 3.37h.17c.413-2.817.574-5.665.48-8.51 0-1.56-.15-3.06-.3-4.51-1 0-5.54 0-7.54-.86s-4.13-2.44-4.65-4.59a3.707 3.707 0 0 1 .459-2.996 3.72 3.72 0 0 1 1.094-1.099 3.707 3.707 0 0 1 1.447-.555c3.11-.42 6.93 3.75 8.14 6.27.06.14.58 1.61.93 2.69l-.23-2c-.31-2.35-.75-4.48-1.15-6.37l-.7-2.93c-1-.5-4.92-2.55-6.26-4.22s-2.54-4.06-2-6.21a3.707 3.707 0 0 1 3.263-2.873 3.694 3.694 0 0 1 1.527.173z"/><path id="J" d="M397.23 169c-2.45-.1-7.35-2.62-7.35-2.62l2.82-2.88c2.19-1.74 7.45-3.83 10.06-2.09a3.71 3.71 0 0 1 1.053 1.132 3.695 3.695 0 0 1 .356 3.002 3.683 3.683 0 0 1-.759 1.346c-1.41 1.71-4.09 2.19-6.18 2.11z"/><path id="K" d="M368.62 230.35s-14.87-35.84-23.19-34.28 14.27 57.14 14.27 57.14-26.16-49.35-44-49.35 6.54 54.54 29.14 72.72c0 0-35.68-38.44-56.49-30.12S330 293.73 330 293.73s-36.27-11.43-32.11-2.6 15.46 10.39 15.46 10.39l-41 2.08H415l-32.11-3.12s33.3-16.62 24.38-23.38-28.54 7.79-28.54 7.79 33.89-37.4 27.35-51.42-35.68 25.45-35.68 25.45 23.79-50.38 19-59.22-20.78 30.65-20.78 30.65z"/><path id="L" d="m188 251-24.21-9.48a19.61 19.61 0 0 0-3.9 2.53 6.14 6.14 0 0 0-1.52 2.54s11.51 8.3 17.1 10.84 13.72 3.39 15.07 2 1-6.6.17-7.45a6.85 6.85 0 0 0-1.52-1.18"/><path id="M" d="M81.13 235.48s-3 .51-2.2 4.41S75.88 269 75.88 269h7.45s5.08-13.38 5.92-16.59 1.53-5.76 0-8.47"/></defs></svg>