<svg xmlns="http://www.w3.org/2000/svg" viewBox="0 0 100 100"><style>.D{stroke:#42474a}.E{stroke-width:.8}.F{stroke-miterlimit:10}</style><g fill="#41b772"><path d="M78.1 56.2h-.2.1c-1.7-.5-2.9-2-2.9-3.8 0-1.2.6-2.3 1.5-3.1h1.6c3.2 0 5.8-2.6 5.8-5.8s-2.6-5.8-5.8-5.8h-3.8c-1.2-.7-2-2-2-3.5 0-1.4.8-2.7 1.9-3.4h2c2.2 0 4-1.8 4-4s-1.8-4-4-4H28.8c-2.2 0-4 1.8-4 4s1.8 4 4 4H31c1.1.7 1.9 2 1.9 3.4 0 1.5-.8 2.8-2 3.5h-8.1c-3.2 0-5.8 2.6-5.8 5.8s2.6 5.8 5.8 5.8h11c.9.7 1.4 1.8 1.4 3.1 0 1.9-1.3 3.4-3 3.9h-9.5c-3.2 0-5.8 2.6-5.8 5.8s2.6 5.8 5.8 5.8h13.4c.5.5.8 1.2.8 1.9s-.3 1.4-.8 1.9h-5.5c-2.7 0-4.8 2.2-4.8 4.8 0 2.7 2.2 4.8 4.8 4.8h45.7c2.7 0 4.8-2.2 4.8-4.8 0-2.7-2.2-4.8-4.8-4.8h-5.8c-.5-.5-.8-1.1-.8-1.9s.3-1.4.8-1.9H78c3.2 0 5.8-2.6 5.8-5.8 0-3.3-2.6-5.9-5.7-5.9z" opacity=".1"/><g class="D E"><circle cx="50.7" cy="51.7" r="13.1"/><path d="M50.4 38.5v26.2" class="F"/></g></g><path d="M51.2 38.5c.6.4 6.7 4.8 6.9 12.8.2 8.4-6.4 13.1-6.9 13.4m-1.3-26.2c-.6.4-6.7 4.8-6.9 12.8-.2 8.4 6.4 13.1 6.9 13.4" fill="none" class="D E F"/><path d="M37.4 51.7h26.2" fill="#41b772" class="D E F"/><g fill="none" class="D E F"><path d="M41.2 42.7c.3.4 3.5 4.9 9.3 5 6.1.1 9.5-4.6 9.8-5M41.2 60.8c.3-.4 3.5-4.9 9.3-5 6.1-.1 9.5 4.6 9.8 5"/><g stroke-linecap="square"><path d="M50.4 31.9v3.5m0-3.8 1.6 1.6m-3.1 0 1.5-1.6m0 40.5v-3.5m0 3.8 1.6-1.6m-3.1 0 1.5 1.6M36.2 37.8l2.5 2.5M36 37.6h2.3M36 39.8v-2.2m28.6 28.6-2.4-2.4m2.6 2.6v-2.2m-2.2 2.2h2.2M30.4 52h3.4m-3.7 0 1.5-1.6m0 3.2L30.1 52m40.4 0h-3.4m3.7 0-1.6-1.6m0 3.2 1.6-1.6M36.2 66.2l2.5-2.4M36 66.4v-2.2M38.3 66.4H36m28.6-28.6-2.4 2.5m2.6-2.7h-2.2m2.2 2.2v-2.2"/></g></g></svg>