<svg xmlns="http://www.w3.org/2000/svg" viewBox="-247 370.9 100 100"><path fill="#41b772" d="M-169.4 425h-.2.1c-1.7-.5-2.9-2-2.9-3.8 0-1.2.6-2.3 1.5-3.1h1.6c3.2 0 5.8-2.6 5.8-5.8s-2.6-5.8-5.8-5.8h-3.8c-1.2-.7-2-2-2-3.5 0-1.4.8-2.7 1.9-3.4h2c2.2 0 4-1.8 4-4s-1.8-4-4-4h-47.3c-2.2 0-4 1.8-4 4s1.8 4 4 4h2.2c1.1.7 1.9 2 1.9 3.4 0 1.5-.8 2.8-2 3.5h-8.1c-3.2 0-5.8 2.6-5.8 5.8s2.6 5.8 5.8 5.8h11c.9.7 1.4 1.8 1.4 3.1 0 1.9-1.3 3.4-3 3.9h-9.5c-3.2 0-5.8 2.6-5.8 5.8s2.6 5.8 5.8 5.8h13.4c.5.5.8 1.2.8 1.9s-.3 1.4-.8 1.9h-5.5c-2.7 0-4.8 2.2-4.8 4.8 0 2.7 2.2 4.8 4.8 4.8h45.7c2.7 0 4.8-2.2 4.8-4.8 0-2.7-2.2-4.8-4.8-4.8h-5.8c-.5-.5-.8-1.1-.8-1.9s.3-1.4.8-1.9h7.5c3.2 0 5.8-2.6 5.8-5.8-.1-3.3-2.7-5.9-5.9-5.9z" opacity=".1"/><path fill="#e0dfe1" d="m-178.8 436.6-11.1-11.1c1.9-2.4 3-5.5 3-8.8 0-7.9-6.4-14.4-14.4-14.4-7.9 0-14.4 6.4-14.4 14.4 0 7.9 6.4 14.4 14.4 14.4 3.3 0 6.4-1.1 8.8-3l11.1 11.1c.5.5 1.4.5 1.9 0l.6-.6c.7-.6.7-1.5.1-2zm-22.4-8.4c-6.4 0-11.5-5.2-11.5-11.5 0-6.4 5.2-11.5 11.5-11.5 6.4 0 11.5 5.2 11.5 11.5s-5.2 11.5-11.5 11.5z"/><path d="m-179 436.9-11.1-11.2-.2-.2.2-.2c2.2-2.8 3.3-6.4 2.9-9.9-.3-3.5-2-6.9-4.7-9.3-2.6-2.4-6.2-3.7-9.8-3.6s-7.1 1.6-9.6 4.1c-2.6 2.5-4 6-4.1 9.6a12.91 12.91 0 0 0 .8 5.2c.6 1.7 1.5 3.2 2.7 4.6 2.4 2.7 5.7 4.4 9.3 4.7 1.8.2 3.6 0 5.3-.5s3.3-1.3 4.7-2.4l.2-.2.2.2 7.4 7.4 3.7 3.7c.3.3.5.4.9.3.2 0 .3-.1.4-.2s.3-.2.4-.4l.4-.4a.76.76 0 0 0 .2-.4c.1-.4 0-.7-.2-.9zm.5-.6c.4.4.6 1 .5 1.5 0 .3-.2.5-.3.8-.2.2-.3.4-.5.5s-.3.3-.5.5-.5.2-.8.3c-.5.1-1.2-.2-1.5-.6l-3.7-3.7-7.4-7.4h.4c-1.5 1.1-3.1 2-4.9 2.5s-3.6.7-5.5.5c-3.7-.3-7.2-2.1-9.6-4.9-1.2-1.4-2.2-3-2.8-4.7s-.9-3.6-.8-5.4c.1-3.7 1.7-7.3 4.3-9.9s6.2-4.2 9.9-4.3c3.7-.2 7.4 1.2 10.2 3.6s4.6 5.9 4.9 9.6a14.4 14.4 0 0 1-3 10.4v-.5l11.1 11.2zm-22.8-7.7h-.8c-.3 0-.6-.1-1-.1s-.8-.2-1.3-.3c-1-.3-2.2-.7-3.3-1.5-1.2-.8-2.4-1.9-3.3-3.3-1-1.5-1.7-3.3-1.9-5.2 0-.5-.1-1-.1-1.5s0-1 .1-1.5c.1-1.1.5-2.1.9-3.1s1.1-1.9 1.8-2.8a13.15 13.15 0 0 1 2.5-2.2c1-.6 2-1.1 3.1-1.4s2.3-.5 3.4-.5 2.3.2 3.4.5 2.1.8 3.1 1.4a13.15 13.15 0 0 1 2.5 2.2c.7.9 1.3 1.8 1.8 2.8a11.93 11.93 0 0 1 1 6.1 11.63 11.63 0 0 1-1.9 5.3c-1 1.5-2.2 2.6-3.3 3.3-1.2.8-2.4 1.2-3.3 1.5-.5.1-.9.2-1.3.3s-.7.1-1 .1c-.8-.2-1-.1-1.1-.1zm.1-.8h.8c.3 0 .6 0 .9-.1.4 0 .8-.1 1.2-.3.9-.3 2-.7 3.1-1.4a11.69 11.69 0 0 0 3.2-3.1c.9-1.4 1.6-3.1 1.8-4.9.2-1.9 0-3.9-.9-5.8-.4-1-1-1.8-1.6-2.7-.7-.8-1.5-1.5-2.4-2.2-.9-.6-1.9-1.1-3-1.4s-2.2-.5-3.3-.5-2.2.2-3.3.5a11.69 11.69 0 0 0-3 1.4c-.9.6-1.7 1.3-2.4 2.2-.7.8-1.2 1.7-1.6 2.7-.4.9-.7 1.9-.8 2.9-.1.5-.1 1-.1 1.5s0 1 .1 1.4c.2 1.9.9 3.6 1.8 4.9.9 1.4 2.1 2.4 3.2 3.1s2.2 1.1 3.1 1.4c.5.1.9.2 1.2.3.4.1.7.1.9.1.8-.1 1.1 0 1.1 0z" fill="#42474a"/><path fill="#41b772" stroke="#42474a" stroke-miterlimit="10" stroke-width=".8" d="M-200 419.9h-2.9v-.4c0-.7.1-1.3.4-1.8s.8-1.1 1.5-1.6a7.87 7.87 0 0 0 1.6-1.6c.3-.5.5-1 .5-1.5 0-.6-.2-1.1-.7-1.4-.4-.3-1-.5-1.7-.5s-1.3.2-1.8.6-.7 1-.7 1.6c0 .3.1.6.2.8l-2.6.5c-.2-.5-.3-1-.3-1.6 0-1.2.5-2.3 1.5-3.2s2.2-1.4 3.8-1.4 2.9.4 3.8 1.2 1.4 1.8 1.4 3.1c0 .9-.2 1.7-.6 2.4s-1.2 1.5-2.3 2.5c-.4.3-.7.7-.8 1-.2.4-.3.8-.3 1.3zm-2.9 4.8v-3.1h3v3.1h-3z"/></svg>