<svg xmlns="http://www.w3.org/2000/svg" viewBox="-247 370.9 100 100"><path fill="#41b872" d="M-170.8 423.5h-.2.1c-1.6-.4-2.8-1.9-2.8-3.6 0-1.2.5-2.2 1.4-2.9h1.5c3 0 5.5-2.4 5.5-5.5s-2.4-5.5-5.5-5.5h-3.6c-1.1-.7-1.9-1.9-1.9-3.3s.7-2.6 1.8-3.2h1.9a3.8 3.8 0 1 0 0-7.6h-44.9a3.8 3.8 0 1 0 0 7.6h2.1c1.1.7 1.8 1.9 1.8 3.2 0 1.4-.8 2.6-1.9 3.3h-7.7c-3 0-5.5 2.4-5.5 5.5s2.4 5.5 5.5 5.5h10.5c.8.7 1.4 1.7 1.4 2.9 0 1.8-1.2 3.2-2.8 3.7h-9c-3 0-5.5 2.4-5.5 5.5 0 3 2.4 5.5 5.5 5.5h12.7c.5.5.8 1.1.8 1.8s-.3 1.3-.8 1.8h-5.3c-2.5 0-4.6 2.1-4.6 4.6s2.1 4.6 4.6 4.6h43.4c2.5 0 4.6-2.1 4.6-4.6s-2.1-4.6-4.6-4.6h-5.5c-.5-.5-.8-1.1-.8-1.8s.3-1.4.8-1.8h7.1c3 0 5.5-2.4 5.5-5.5-.2-3.1-2.6-5.6-5.6-5.6z" opacity=".1"/><path d="M-184.2 422.1c5.7 0 10.3-4.6 10.3-10.3s-4.6-10.3-10.3-10.3-10.3 4.6-10.3 10.3v10.3h10.3z" fill="none" stroke="#464646" stroke-width="1.473"/><path fill="#41b872" d="M-183.4 416.3c0 .1 0 .2-.1.2-.1.1-.2.1-.2.1h-.7c-.1 0-.2 0-.2-.1-.1-.1-.1-.2-.1-.2v-.7c0-.1 0-.2.1-.2.1-.1.2-.1.2-.1h.7c.1 0 .2 0 .2.1.1.1.1.2.1.2v.7zm-3.7-6.4c0-.3.1-.6.2-.9s.3-.6.6-.8c.2-.2.6-.4.9-.6.4-.2.8-.2 1.3-.2.4 0 .8.1 1.2.2s.7.3.9.5c.3.2.5.5.6.8s.2.6.2 1-.1.7-.2.9-.3.5-.4.7l-.6.6c-.2.2-.4.3-.6.5s-.3.4-.4.6-.2.5-.2.8v.2c0 .1 0 .2-.1.2-.1.1-.2.1-.2.1h-.5c-.1 0-.2 0-.2-.1-.1-.1-.1-.2-.1-.2v-.3c0-.3.1-.6.2-.9.1-.2.3-.5.4-.7l.6-.6c.2-.2.4-.3.6-.5s.3-.4.4-.6.2-.5.2-.7-.1-.4-.1-.6a.78.78 0 0 0-.4-.4l-.6-.3c-.2-.1-.4-.1-.7-.1-.5 0-.8.1-1.2.3-.3.2-.5.6-.7 1.1 0 .1-.1.2-.1.2-.1 0-.1.1-.2.1h-.6c-.1 0-.2 0-.2-.1 0 0-.1-.1 0-.2z"/><path d="M-185.2 439.6c-2.4 2.4-11.1.1-19.8-8.5-8.6-8.6-10.9-17.4-8.5-19.7 2-2 4.5-5.6 8.2-1s1.9 5.9-.2 8c-1.5 1.5 1.6 5.2 4.8 8.4s6.9 6.3 8.4 4.8c2.1-2.1 3.4-3.9 8-.2 4.7 3.7 1.1 6.2-.9 8.2z" fill="none" stroke="#464646" stroke-width="1.473"/></svg>