<svg xmlns="http://www.w3.org/2000/svg" viewBox="-247 370.9 100 100"><style>.E{stroke:#42474a}.F{stroke-miterlimit:10}.G{stroke-width:.8}</style><path fill="#41b772" d="M-169.4 425h-.2.1c-1.7-.5-2.9-2-2.9-3.8 0-1.2.6-2.3 1.5-3.1h1.6c3.2 0 5.8-2.6 5.8-5.8s-2.6-5.8-5.8-5.8h-3.8c-1.2-.7-2-2-2-3.5 0-1.4.8-2.7 1.9-3.4h2c2.2 0 4-1.8 4-4s-1.8-4-4-4h-47.3c-2.2 0-4 1.8-4 4s1.8 4 4 4h2.2c1.1.7 1.9 2 1.9 3.4 0 1.5-.8 2.8-2 3.5h-8.1c-3.2 0-5.8 2.6-5.8 5.8s2.6 5.8 5.8 5.8h11c.9.7 1.4 1.8 1.4 3.1 0 1.9-1.3 3.4-3 3.9h-9.5c-3.2 0-5.8 2.6-5.8 5.8s2.6 5.8 5.8 5.8h13.4c.5.5.8 1.2.8 1.9s-.3 1.4-.8 1.9h-5.5c-2.7 0-4.8 2.2-4.8 4.8 0 2.7 2.2 4.8 4.8 4.8h45.7c2.7 0 4.8-2.2 4.8-4.8 0-2.7-2.2-4.8-4.8-4.8h-5.8c-.5-.5-.8-1.1-.8-1.9s.3-1.4.8-1.9h7.5c3.2 0 5.8-2.6 5.8-5.8-.1-3.3-2.7-5.9-5.9-5.9z" opacity=".1"/><g fill="#40b672" class="E F G"><path d="M-214.3 399.2v4.2h-3.9v39.3h27.8c4.7 0 8.5-3.8 8.5-8.5v-34.9h-32.4z"/><path d="M-218.1 442.6h-.2a3.8 3.8 0 0 1-3.8-3.8v-35.5h7.7v35.5c.1 2.1-1.6 3.8-3.7 3.8z"/></g><path d="M-208.9 404.6h23.5v9.6h-23.5zm0 14.1h9.5v10.7h-9.5z" fill="#e0dfe0" class="E F G"/><path d="M-209.2 433.2h16m-16 2h16m-16 2h16" fill="none" class="E F"/><g fill="#e0dfe0" class="G E F"><path d="M-186.8 438.7h-.1c-1.2 0-2.1-.9-2.1-2.1v-8.2c0-1.2.9-2.1 2.1-2.1h.1c1.2 0 2.1.9 2.1 2.1v8.2c0 1.1-.9 2.1-2.1 2.1z"/><path d="M-183.1 429.2h-4.8c-2.2 0-4-1.8-4-4v-1.9c0-2.2 1.8-4 4-4h4.8c2.2 0 4 1.8 4 4v1.9c0 2.2-1.8 4-4 4z"/><path d="m-182.9 419.2 6.9-5v20l-6.9-5.2z"/></g><path d="M-172.6 424.6h-1.6c-.4 0-.6-.3-.6-.6 0-.4.3-.6.6-.6h1.6c.4 0 .6.3.6.6.1.3-.2.6-.6.6zm-.4 3.7-1.4-.8c-.3-.2-.4-.6-.2-.9s.6-.4.9-.2l1.4.8c.3.2.4.6.2.9a.96.96 0 0 1-.9.2zm.5-7.8-1.4.8c-.3.2-.7.1-.9-.2s-.1-.7.2-.9l1.4-.8c.3-.2.7-.1.9.2s.1.7-.2.9zm-29.8-8.9-1.3-3.3v3.3h-.8v-5.3h.8l1.3 3.3v-3.3h.8v5.3h-.8zm3.7 0h-2.2v-5.3h2.2v1.1h-1.4v1h1.3v1.1h-1.3v1.1h1.4v1zm4.6 0h-1l-.8-3.7-.8 3.7h-1l-.7-5.3h.9l.4 3.6.7-3.6h.8l.7 3.6.4-3.6h.9l-.5 5.3zm3.3-1.4c0-1-2.2-.4-2.2-2.3 0-1.1.7-1.6 1.4-1.6.8 0 1.5.5 1.5 1.7h-.8c0-.6-.3-.7-.7-.7-.2 0-.6.2-.6.6 0 .9 2.2.3 2.2 2.3 0 1.2-.8 1.7-1.6 1.7s-1.6-.6-1.6-1.9h.8c0 .6.4.9.8.9.4-.1.8-.3.8-.7z" fill="#42474a"/></svg>