<svg xmlns="http://www.w3.org/2000/svg" xmlns:xlink="http://www.w3.org/1999/xlink" viewBox="-1006 1664.1 396 459"><style>.S{fill:#25c16f}.T{enable-background:new}.U{opacity:.5}.V{fill:#fff}.W{fill:#263238}.X{opacity:.9}.Y{fill:#455a64}.Z{fill:#945959}.a{fill:#37474f}.b{fill:#703838}</style><path d="M-808 2122.4c-108.8 0-197.1-50.1-197.1-111.9s88.2-111.9 197.1-111.9c108.8 0 197 50.1 197 111.9s-88.2 111.9-197 111.9z" fill="#f5f5f5"/><path d="m-890 2081 147.1-84.9a7.71 7.71 0 0 0 3.1-3.1 9.16 9.16 0 0 0 1.1-4.3 9.16 9.16 0 0 0-1.1-4.3 7.71 7.71 0 0 0-3.1-3.1l-14.5-9.2c-2.5-1.4-5.3-2.2-8.2-2.2s-5.7.8-8.2 2.2l-147.1 84.9a7.71 7.71 0 0 0-3.1 3.1 9.16 9.16 0 0 0-1.1 4.3 9.16 9.16 0 0 0 1.1 4.3 7.71 7.71 0 0 0 3.1 3.1l14.5 9.1c2.5 1.4 5.4 2.2 8.2 2.2s5.7-.6 8.2-2.1z" fill="#e0e0e0"/><path d="M-666.3 2003.6c-17.6 0-31.9-8.2-31.9-18.3s14.3-18.3 31.9-18.3 31.9 8.2 31.9 18.3-14.3 18.3-31.9 18.3z" fill="#e6e6e6"/><use xlink:href="#B" class="S"/><use xlink:href="#B" class="T U"/><path d="M-948.7 2012c.1 0 .2 0 .3-.1l.2-.2c0-.1 5.4-14.8 5.2-38.3s-12.5-36.3-12.6-36.4c0 0-.1-.1-.2-.1h-.4c-.1 0-.1.1-.2.1 0 0-.1.1-.1.2v.4c0 .1.1.1.1.2.1.1 12.2 12.5 12.3 35.7.2 23.2-5.1 37.8-5.2 37.9v.4l.3.3c.2-.1.3-.1.3-.1z" class="V"/><path d="m-948 2011.2-19.1 11c-2 1.2-4.4 1.6-6.6 1.1-2.3-.5-4.3-1.8-5.6-3.7-1.3-2-1.8-4.3-1.5-6.7.9-9.9 5.2-12.2 0-16.7-5.3-4.4-6.7-4.7-6.4-9s3.2-6.1 4.6-7.8 5.2-5.2 2.6-10.4-6.2-10.2-.8-12.5c3.2-1.4 8.6.5 12.1 4.3s6.4 6.6 9.8 7.5 10.4 1.1 10.1 6.9-1.8 7.8-.5 10.4c2.5 4.8 13.8 7.6 1.3 25.6z" class="S"/><g class="V"><path d="M-957.5 2017.2c.1 0 .2-.1.3-.1.1-.1.2-.2.2-.3 0-.3 2.9-34.7-20.7-57.5-.1-.1-.2-.1-.3-.1s-.2.1-.3.2-.1.2-.1.3 0 .2.1.3c23.3 22.5 20.4 56.3 20.4 56.7 0 .1 0 .3.1.4 0 0 .2 0 .3.1z"/><path d="M-961.3 1987.6c.1 0 .2 0 .3-.1s.1-.2.2-.3c.2-2.7 1-5.2 2.2-7.6s3-4.4 5-6.1c.1 0 .1-.1.1-.1 0-.1.1-.1.1-.2v-.2c0-.1 0-.1-.1-.2 0-.1-.1-.1-.1-.1-.1 0-.1-.1-.2-.1h-.2c-.1 0-.1 0-.2.1-2.2 1.8-4 3.9-5.4 6.4-1.3 2.5-2.1 5.2-2.3 8 0 .1 0 .3.1.4.3.1.4.1.5.1zm1.7 5.9c.1 0 .2 0 .3-.1s.2-.2.2-.3 0-.3-.1-.4c-.2-.3-6.1-6.8-20-5.1-.1 0-.3.1-.3.2s-.1.2-.1.4c0 .1.1.3.2.3s.2.1.4.1c13.3-1.7 19.1 4.7 19.1 4.7 0 .1.1.1.2.1-.1.1 0 .1.1.1z"/></g><path d="m-885.5 2070.9 129.4-74.7c9.1-5.3 16.5-19.4 16.5-31.6v-277c0-12.2-7.4-17.8-16.5-12.5l-129.4 74.7c-9.1 5.3-16.5 19.4-16.5 31.6v277c0 12.1 7.3 17.7 16.5 12.5z" class="Y"/><path d="m-900.4 1741.1 129.4-74.7c3.9-2.3 7.5-2.5 10.3-1.1.3.2.7.4 1 .6l14.5 8.4c-2.9-1.8-6.7-1.6-10.9.8l-129.4 74.7c-9.1 5.3-16.5 19.4-16.5 31.6v277c0 6.4 2.1 11 5.4 13.2l-14.3-8.3c-3.6-1.9-6-6.7-6-13.5v-277c-.1-12.3 7.3-26.4 16.5-31.7z" class="a"/><path d="M-902 1781.4v277c0 6.4 2.1 11 5.4 13.2l-14.3-8.3c-3.7-1.9-6-6.7-6-13.5v-277l14.9 8.6z" class="W"/><path d="m-917 1794.2 14.9 8.6v6.7l-14.9-8.6v-6.7zm6.6 44.7c1.3.8 2.4-.1 2.4-1.8v-14.5c0-.9-.2-1.8-.7-2.6-.4-.8-1-1.5-1.8-2-1.3-.8-2.4 0-2.4 1.8v14.4c0 .9.2 1.8.7 2.6.4.9 1 1.5 1.8 2.1z" class="a"/><path d="M-908 1837.1v-14.5c0-.9-.2-1.8-.7-2.6-.4-.8-1-1.5-1.8-2-.2-.2-.5-.2-.7-.3-.3 0-.5 0-.8.1l1.8-.9c.2-.1.5-.2.8-.2s.5.1.8.3c.7.5 1.3 1.2 1.8 2 .4.8.6 1.7.7 2.6v14.4c0 .4 0 .7-.2 1.1-.1.3-.4.6-.7.9l-1.9 1c.3-.2.5-.5.7-.8.2-.4.2-.7.2-1.1z" class="Y"/><path d="M-910.4 1873.8c1.3.8 2.4 0 2.4-1.8v-14.5c0-.9-.2-1.8-.7-2.6-.4-.8-1-1.5-1.8-2-1.3-.8-2.4 0-2.4 1.8v14.4c0 .9.2 1.8.7 2.6.4.9 1 1.6 1.8 2.1z" class="a"/><path d="M-908 1872v-14.5c0-.9-.2-1.8-.7-2.6-.4-.8-1-1.5-1.8-2-.2-.2-.5-.2-.7-.3-.3 0-.5 0-.8.1l1.8-.9c.2-.1.5-.2.8-.2s.5.1.8.3c.7.5 1.3 1.2 1.8 2 .4.8.6 1.7.7 2.6v14.5c0 .4 0 .7-.2 1.1-.1.3-.4.6-.7.9l-1.9 1c.3-.2.6-.5.7-.9a1.39 1.39 0 0 0 .2-1.1z" class="Y"/><use xlink:href="#C" class="S"/><use xlink:href="#C" class="T V X"/><path d="m-791.9 1703.3-2 8.3-42.1 24.3-7.3-3.9 51.4-28.7z" class="Y"/><path d="M-804.3 1711.3c0 1.4 1 1.9 2.2 1.3.6-.4 1.1-1 1.5-1.6s.6-1.4.6-2.1c0-1.4-1-1.9-2.2-1.2-.6.4-1.1 1-1.5 1.6-.3.6-.6 1.3-.6 2zm-28.4 17.6c.2 0 .5-.1.7-.2l21.5-12c.3-.2.5-.5.6-.8s0-.7-.1-1c-.2-.3-.5-.5-.8-.6s-.7-.1-1 .1l-21.5 12c-.3.1-.5.4-.6.6-.1.3-.1.6-.1.9.1.3.2.5.5.7s.5.3.8.3z" class="W"/><use xlink:href="#D" class="S"/><use xlink:href="#D" opacity=".4" class="T"/><path d="M-747.8 1786.4c0-.4-.3-.6-.8-.6-1.2.2-2.3.7-3.2 1.5l-1.4-2.8c1.5-1.1 3.3-1.8 5.2-1.8 2.4 0 4.2 1.3 4.2 3.1 0 1.3-1 2.6-2.3 3.9l-1.8 1.8h4.2v2.9h-9.1v-2.4l4.1-4.2c.5-.3.8-.8.9-1.4zm11.6-3.5-2.8 6.6h1.1v-2.2h3.5v2.2h1.3v2.7h-1.3v2.3h-3.5v-2.3h-4.9v-2.5l3-6.9h3.6zm13.9 5.8v5.8h-3.7v-5.2a.76.76 0 0 0-.2-.4c-.1-.1-.2-.2-.4-.3s-.3-.1-.4-.1c-.7 0-1.2.6-1.2 1.5v4.5h-3.7v-12.3h3.7v4.5c.3-.5.7-.8 1.2-1.1s1-.4 1.6-.4c.4 0 .9.1 1.3.2.4.2.8.4 1.1.8.3.3.5.7.7 1.1v1.4z" class="V"/><use xlink:href="#E" class="S"/><use xlink:href="#E" class="T U V"/><g class="W"><path d="M-835.9 1955.2s-12.5 20.8-3.5 44.2l43.9-25.2-40.4-19zm-20-93.4c-.9-7.7 4.5-14.7 12.2-15.7 7.7-.9 14.7 4.5 15.7 12.2.9 7.7-4.5 14.7-12.2 15.7s-14.7-4.5-15.7-12.2zm13.9-41.1s-4.3-7-5.6-6.5.9 7.2.9 7.2-6.5 1.4-5.3 3 9.2 1.3 9.2 1.3l.8-5z"/><path d="M-845 1838.7c3 22.5 22 22.5 22 22.5l39.8-17.5s3-2.6 3.9-8.7c.4-2.5.4-5 0-7.5v-.1c-1.3-9.5-8.4-19.7-23.8-22.8-3.4-.7-6.8-1-10.3-1a41.93 41.93 0 0 0-5 .3c-12 1.2-20.4 6.8-24.4 15.5-.9 2-1.6 4-2 6.2-.8 4.3-.9 8.8-.2 13.1z"/></g><path d="M-749.5 1882.3s14.1-.5 19.6 13.3c0 0-6 4.1-13.9 0-7.8-4-5.7-13.3-5.7-13.3z" class="S"/><path d="M-749.5 1882.3s14.1-.5 19.6 13.3c0 0-6 4.1-13.9 0-7.8-4-5.7-13.3-5.7-13.3z" class="T U"/><path d="M-749 1888.9s4-17.4 6.1-17.6 2.5 5.3 2.4 8.4l5-10.8c.2-.3.4-.6.7-.9.3-.2.6-.4 1-.5s.7-.2 1.1-.1a1.69 1.69 0 0 1 1 .3c5 2.8 13.8 11.1-4.7 31.8l-12.6-10.6z" class="Z"/><g class="S"><path d="m-800.3 1876.9 3-.4c3-.4 6.1 0 8.9 1.2s5.3 3.1 7.1 5.5l17.8 23.8 14-24.7s1.7 16.8 19.6 13.3l-19.2 32.3c-1.2 2-2.9 3.8-4.9 5-2 1.3-4.3 2-6.7 2.2s-4.8-.2-6.9-1.2c-2.2-.9-4.1-2.4-5.6-4.3l-16.4-20.2-10.7-32.5z"/><use xlink:href="#F"/></g><use xlink:href="#F" class="T U"/><path d="m-818.2 1902.1 6.7-5.7c.7-.6 1.6-1 2.5-1.2s1.9-.1 2.7.2l8.1 2.8 1.1-4.5c.2-.7.5-1.4.9-2a4.28 4.28 0 0 1 1.6-1.4c.6-.4 1.3-.6 2-.7s1.5 0 2.2.2l3.5 1-5.9-11.4a20.85 20.85 0 0 0-8.6-8.8l-2.3-1.3-19.3 1s-7.2 3-7.2 9.8l12 22" class="S"/><g class="Z"><path d="m-823 1878.8 19.3 15V1846H-823v32.8z"/><path d="m-804 1874.9 5.9 23.3-24.8-19.4 18.9-3.9z"/></g><path d="M-803.7 1871.4c-4.3-1.6-8.2-4-11.5-7.2s-6-7-7.8-11.2v-7.1h19.3v25.5z" class="b"/><path d="M-807.9 1810.5c7.3 0 22.9 4.1 24.7 23.2 1.8 19.2.1 34-9.8 35.4s-32.8-5.7-35.9-30.5 13.9-28.1 21-28.1z" class="Z"/><path d="M-796.3 1841.8v11.3l6.6-2-6.6-9.3z" class="b"/><path d="M-803.7 1846.1a2.3 2.3 0 1 1 0-4.6 2.3 2.3 0 1 1 0 4.6zm12.8-3.9c0 .5.1.9.4 1.3s.6.7 1 .8c.4.2.9.2 1.3.1s.9-.3 1.2-.6.5-.7.6-1.2c.1-.4 0-.9-.1-1.3-.2-.4-.5-.8-.8-1-.4-.3-.8-.4-1.3-.4-.3 0-.6.1-.9.2s-.5.3-.7.5-.4.5-.5.8-.2.5-.2.8zm5.1-4.8-4.5-2.7s1.7-1.8 3.4-.7c1.8 1.1 1.1 3.4 1.1 3.4z" class="W"/><path d="M-793.2 1857.7c-2.2.2-4.4-.4-6.2-1.7 0 0-.4 3.3 2.3 3.9s3.9-2.2 3.9-2.2z" class="b"/><path d="M-789.3 1817s-2.8 26.5-38.7 27.3c0 0-10.9-26.3 10.6-34.8 21.5-8.6 28.1 7.5 28.1 7.5z" class="W"/><g class="S"><path d="m-838.6 1840.3 4.4-2.6c1.7-1 4-.9 6.6.6 5.1 2.9 9.2 10.1 9.2 16 0 2.9-1 5-2.7 6l-4.3 2.5-.3.1-.1.1c-1.6.8-3.8.6-6.2-.8-5.1-3-9.2-10.1-9.2-16-.1-2.9.9-4.9 2.6-5.9z"/><use xlink:href="#G"/></g><use xlink:href="#G" class="T U"/><g class="S"><path d="m-840.4 1845.9 3-1.8c1.1-.7 2.7-.6 4.5.4 1.8 1.2 3.4 2.8 4.5 4.7s1.7 4 1.9 6.2c0 2-.7 3.4-1.9 4.1l-3 1.7c-.1 0-.1.1-.2.1l-.1.1a4.22 4.22 0 0 1-2.2.3 5.39 5.39 0 0 1-2.1-.8c-1.8-1.2-3.4-2.8-4.5-4.7s-1.7-4-1.9-6.2c.2-2.1.9-3.5 2-4.1z"/><use xlink:href="#H"/></g><use xlink:href="#H" opacity=".3" class="T"/><g class="S"><path d="M-824.9 1805.3a17.32 17.32 0 0 1 10-3.5h.9c3.7 0 7.3.3 10.9 1h-2 2v1.9h-1.9c-6.4.2-12.5 2.9-16.9 7.5-4.5 4.6-6.9 10.8-6.9 17.2v7.9c0 .3-.1.6-.2.9s-.3.5-.5.7-.5.4-.8.5-.6.1-.9.1h-.2l-2-.6c.1 0 .3.1.4.1-.6-.1-1.1-.4-1.5-.8-.4-.5-.6-1-.6-1.6v-7.3c-.1-13.3 5.6-20.4 10.2-24z"/><use xlink:href="#I"/></g><use xlink:href="#I" class="T U"/><use xlink:href="#J" class="S"/><use xlink:href="#J" class="T U"/><use xlink:href="#K" class="S"/><use xlink:href="#K" class="T U"/><path d="M-823.9 1966.8s4.8 13.3-12.5 19.3c0 0-5.6-8.3 0-15.1 5.7-6.8 12.5-4.2 12.5-4.2z" class="S"/><path d="M-823.9 1966.8s4.8 13.3-12.5 19.3c0 0-5.6-8.3 0-15.1 5.7-6.8 12.5-4.2 12.5-4.2z" opacity=".7" class="T"/><path d="M-830 1967.4s16.9 6.2 16.8 8.6-7.2.8-7.2.8l2.6 1.7c2.7 1.8 4.8 4.4 6.1 7.4a2.56 2.56 0 0 1 0 2.1c-.2.7-.7 1.2-1.4 1.6l-6.4 3.4c-.4.2-.8.3-1.2.3s-.8 0-1.2-.1-.8-.3-1.1-.6-.6-.6-.7-1c-.4-.7-.9-1.3-1.5-1.9s-1.3-.9-2.1-1.1c-3.5-1.2-10-4.5-12.6-13.6l9.9-7.6z" class="Z"/><g class="S"><path d="M-835.1 1881.5s9 5 4.2 20.2-13.8 38.7-13.8 38.7l20.7 26.3c-2.2.3-4.3 1-6.2 2.1a14.77 14.77 0 0 0-4.8 4.5c-1.2 1.9-2 4-2.2 6.2s0 4.4.8 6.5l-25.7-33c-2.4-3-3.9-6.6-4.6-10.5-.6-3.8-.3-7.7.9-11.4l11-32.1c1.3-3.9 3.6-7.5 6.5-10.4s6.5-5.1 10.5-6.4l2.7-.7zm151.9-89.7 39.8-23c.5-.3 1-.5 1.5-.6.6-.1 1.1 0 1.6.2.1.1.2.1.3.2l8.7 5.1h-.1c1.1.6 1.8 2.1 1.8 4.1v44.2c0 3.7-2.3 8.1-5.1 9.7l-39.8 23c-.5.4-1.1.6-1.7.6s-1.2-.1-1.8-.5c0 0 .1 0 .1.1l-8.6-5c-1.1-.6-1.8-2.1-1.8-4.2v-44.3c.1-3.6 2.3-8 5.1-9.6z"/><use xlink:href="#L"/><use xlink:href="#M"/></g><use xlink:href="#L" opacity=".3" class="T"/><use xlink:href="#M" opacity=".6" class="T"/><path d="M-667.8 1819.4c0 5.7 2.3 7.7 5.7 5.7a8.09 8.09 0 0 0 2.4-2.1c.7-.9 1.1-1.8 1.4-2.9 1 1.2 2.5 1.3 4.7.1 3.6-2.1 6.4-7 6.4-11.8s-2.8-6.4-6.4-4.4a11.9 11.9 0 0 0-4.3 4.6v-1.9l-3.8 2.2v10.4c.1.5 0 1.1-.3 1.6-.2.5-.6.9-1.1 1.2-1.3.7-2.1-.5-2.1-4.2 0-6.5 4.2-13.4 10.3-16.9 6.2-3.5 10.3-1.1 10.3 5.6-.1 3.5-1.1 7-2.8 10.1-1.8 3.1-4.3 5.6-7.4 7.5-1.7 1-3.5 1.6-5.5 1.7l-.9 3.5c2.3-.2 4.4-.9 6.4-2.1 8-4.6 13.3-13.9 13.3-22.4 0-8.4-5.3-11.5-13.4-6.8-7.6 4.2-12.9 13.2-12.9 21.3zm9.9-4.8c0-1.3.3-2.5.9-3.6s1.5-2 2.6-2.7c2-1.2 3.4-.3 3.4 2.4 0 1.3-.3 2.5-.9 3.6s-1.5 2.1-2.6 2.7c-2 1.1-3.4.4-3.4-2.4z" class="S"/><path d="M-653.4 1801.8c-7.9 3.5-12.9 11.8-12.7 20s5.5 12 13.3 8.5c1.9-.8 4-2.2 6.2-4.3l-.9-2.5c-1.9 1.8-3.7 3.1-5.3 3.7-3 1.3-5.5 1.3-7.3.1s-2.8-3.6-3-7c-.2-6.5 3.8-13 9.8-15.7s10.2-.1 10.3 6.2c.1 3.6-.6 5.6-1.9 6.1-.4.2-.8.1-1-.1s-.3-.7-.3-1.3l-.3-10.1-3.7 1.6v1.8c-1-.9-2.4-1-4.2-.2-3.5 1.6-6.2 5.9-6 10.6.1 4.6 3 6.6 6.4 5.1 2.1-.9 3.6-2.6 4.5-4.8.3.8.8 1.2 1.4 1.4s1.5.1 2.4-.3c3.3-1.5 5.5-5.6 5.3-11.2-.1-7.5-5.4-11-13-7.6zm.2 18.8c-1 .4-1.9.4-2.5-.1s-.9-1.4-.9-2.7c-.1-2.6 1.3-4.9 3.2-5.7 1.1-.4 1.9-.4 2.5.1s.9 1.4 1 2.6c0 2.7-1.3 4.9-3.3 5.8z" opacity=".81" class="T V"/><g class="S"><path d="m-683.2 1870.6 39.8-23c.5-.3 1-.5 1.5-.6.6-.1 1.1 0 1.6.2.1 0 .2.1.3.2l8.7 5.1h-.1c1.1.6 1.8 2.1 1.8 4.1v44.2c0 3.8-2.3 8.1-5.1 9.7l-39.8 23c-.5.4-1.1.6-1.7.6s-1.2-.1-1.8-.5l.1.1-8.6-5.1c-1.1-.6-1.8-2-1.8-4.1v-44.3c.1-3.6 2.3-8 5.1-9.6z"/><use xlink:href="#N"/><use xlink:href="#O"/></g><use xlink:href="#N" opacity=".3" class="T"/><use xlink:href="#O" opacity=".6" class="T"/><path d="m-650 1890.4 9.6-15.6v21.1l-9.6-5.5zm-9 4.5-9.6 16.6v-21.1l9.6 4.5zm17.1-20.8-9.8 16-.1.1v.1l-2.9 4.8-2.5-1.2-.1-.1c-.1-.1-.2-.1-.3-.1l-10-4.7 25.7-14.9zm-15.6 21.5 2.7 1.3c.1 0 .2.1.3.1s.3 0 .4-.1l.3-.3 2.9-4.8 9.6 5.6-25.9 14.9 9.7-16.7z" class="S"/><path d="M-666.5 1909.6v-21.1l9.4 4.9-9.4 16.2zm26.4-35.5v21.1l-9.3-5.9 9.3-15.2zm-.9-.3-9.8 15.9c-.1.1-.2.3-.3.5 0 .1-.1.2-.1.3l-2.4 3.9-2.9-1.5v-.1h-.1l-9.6-5 25.2-14zm.5 22.3-25.3 14 9.4-16.3 2.9 1.5h.3c.1-.1.3-.2.4-.3s.2-.3.3-.4l2.6-4.3 9.4 5.8z" class="X V T"/><g class="S"><path d="m-683.2 1713.1 39.8-23c.5-.3 1-.5 1.5-.6.6-.1 1.1 0 1.6.2.1.1.2.1.3.2l8.7 5.1h-.1c1.1.6 1.8 2.1 1.8 4.1v44.2c0 3.7-2.3 8.1-5.1 9.7l-39.8 23c-.5.4-1.1.6-1.7.6s-1.2-.1-1.8-.5l.1.1-8.6-5c-1.1-.6-1.8-2-1.8-4.2v-44.3c.1-3.7 2.3-8 5.1-9.6z"/><use xlink:href="#P"/><use xlink:href="#O" y="-157.6"/></g><use xlink:href="#P" opacity=".3" class="T"/><use xlink:href="#O" y="-157.6" opacity=".6" class="T"/><path d="m-666.5 1753.1 4.6-7.5c.2-.5.6-.9 1-1.3.4-.3.9-.6 1.4-.7.7-.2 1.5-.3 2.2-.5.3-.1.5-.3.7-.6 2.5-4.3 4.5-8.8 5.9-13.6v-.3c0-.1 0-.2-.1-.3-.5-.5-1-.9-1.5-1.3s-.7-1.4-.4-2.7l2.2-8c.1-.8.5-1.5 1-2 .5-.6 1.1-1 1.9-1.3 1.6-.4 3.3-.4 4.9.2.6.2.9.8.9 1.7-.3 1.8-.4 3.6-.8 5.5-2.5 13.4-8.4 25.7-17.8 37-.2.4-.6.7-1 .9s-.8.4-1.3.4c-1.6 0-3.1-.6-4.2-1.6-.7-.9-.6-2.3.4-4zm.2-13.6c.2-2.9 1-5.7 2.3-8.2 1-2 2.3-3.9 3.8-5.5.4-.4.7-.6.9-.3s0 .8-.4 1.2l-.4.4c-2.8 3.2-4.5 7.1-5 11.3 0 .3 0 .6-.1.9s-.3.7-.6.9c-.2.2-.4 0-.6 0 .1-.3.1-.5.1-.7zm9-8.2c-1.3 1.4-2 3.1-2.2 5l-.3.8c-.6.5-.9.3-.9-.3.2-2.4 1.2-4.6 2.8-6.4.4-.4.7-.5.9-.2.1.2.1.4 0 .6 0 .1-.1.3-.3.5z" class="S"/><path d="M-645.3 1746.1c-.8 1.3-1.9 2.5-3 3.2-.3.2-.6.3-.9.3s-.5-.1-.7-.2c-6.8-4.1-11-10.6-12.8-19.5-.3-1.2-.4-2.5-.6-3.8 0-.7.2-1.3.7-1.7 1.1-1.2 2.4-2 3.5-2.4.5-.1 1-.1 1.3.1.4.2.6.6.7 1.1.5 1.7 1 3.3 1.6 5 .3.8.1 1.6-.3 2.2-.3.5-.7 1.1-1.1 1.7 0 .1-.1.2-.1.3v.2c1 2.9 2.5 5.4 4.3 7.5.1.1.3.2.5.1.5-.2 1.1-.4 1.6-.6.4-.1.7-.2 1-.1s.5.2.7.5l3.3 3.5c.9.6 1 1.6.3 2.6zm-.2-12.4c-.1.1-.3.3-.4.3a.78.78 0 0 1-.4-.4c0-.2-.1-.4-.1-.6-.4-2.9-1.6-5.1-3.6-6.2l-.3-.2c-.3-.1-.4-.4-.3-.7s.4-.4.7-.2c1.1.5 2 1.4 2.7 2.4 1 1.3 1.5 3 1.7 5.1v.5zm-6.8-2.8v-.4c.1-.3.4-.4.6-.3 1.2.6 1.9 1.8 2 3.5 0 .5-.2.7-.7.7-.1-.1-.2-.3-.2-.5-.1-1.3-.7-2.3-1.6-2.8l-.1-.2z" class="X V T"/><path d="m-887.2 1686.6-9.4 5.3v-4.8c-.3-4.4-3.7-6.1-7.7-3.7-1.8 1.1-3.4 2.6-4.6 4.4-.9-6-5.8-8.1-11.7-4.7-6.5 3.8-11.8 13-11.8 20.5v7.1c0 .6-.1 1.1-.4 1.6s-.7.9-1.2 1.2l-5.5 3.2a8.06 8.06 0 0 0-2.9 2.9c-.7 1.2-1.1 2.6-1.1 3.9 0 .6.2 1.1.4 1.6.3.5.7.9 1.2 1.2s1.1.4 1.6.4c.6 0 1.1-.2 1.6-.4l51.2-29.6c1.4-.8 2.5-1.9 3.3-3.3s1.2-2.9 1.2-4.5c0-.5-.1-1-.4-1.4s-.6-.8-1.1-1.1-.9-.4-1.4-.4c-.4.2-.9.3-1.3.6zm-71.4-1.4-6.8 3.9v-3.5c-.3-3.2-2.7-4.4-5.6-2.7-1.3.8-2.5 1.9-3.4 3.2-.7-4.3-4.2-5.9-8.5-3.4-4.8 2.8-8.6 9.4-8.6 14.9v5.2c0 .4-.1.8-.3 1.2s-.5.6-.8.8l-4 2.3c-.9.5-1.6 1.2-2.1 2.1s-.8 1.9-.8 2.9c0 .4.1.8.3 1.2a1.96 1.96 0 0 0 .9.9c.4.2.8.3 1.2.3s.8-.1 1.2-.3l37.3-21.5c1-.6 1.8-1.4 2.4-2.4s.9-2.1.9-3.2c0-.4-.1-.7-.3-1.1-.2-.3-.4-.6-.8-.8-.3-.2-.7-.3-1.1-.3s-.8.1-1.1.3z" fill="#e6e6e6"/><path d="M-862.7 1783.8c.4.9.6 1.8.6 2.7-.1.9-.4 1.7-.9 2.5-.6.8-1.3 1.5-2.3 2-1.6.9-3.2 1.1-4.7.6s-2.8-1.8-3.9-3.7l-.3-.6c-.7-1.2-1.1-2.4-1.2-3.5-.1-1.2.1-2.2.6-3.1s1.3-1.7 2.3-2.3c1.5-.8 2.9-1.1 4.3-.8s2.5 1.1 3.4 2.4l-3 1.7c-.4-.7-.9-1.2-1.5-1.3-.5-.1-1.2 0-1.9.4s-1.1 1-1.2 1.8c0 .8.3 1.7 1 3l.5.9c.7 1.3 1.4 2.2 2.1 2.6s1.4.3 2.2-.1c.7-.4 1.1-.8 1.3-1.4.2-.5.1-1.2-.3-1.9l2.9-1.9zm10.9-8.4c.7 1.2 1.1 2.4 1.1 3.6.1 1.2-.2 2.3-.7 3.2-.5 1-1.3 1.7-2.4 2.3s-2.1.9-3.2.9-2.1-.4-3.1-1-1.8-1.6-2.5-2.7l-.4-.7c-.7-1.2-1.1-2.4-1.1-3.6-.1-1.2.2-2.3.7-3.2.6-1 1.4-1.8 2.4-2.4s2.1-.9 3.2-.8c1.1 0 2.1.4 3.1 1.1s1.8 1.6 2.5 2.8l.4.5zm-3.3 1.1c-.7-1.2-1.4-2-2.2-2.5a2.35 2.35 0 0 0-2.3 0c-1.5.8-1.7 2.4-.5 4.7l.5.9c.7 1.2 1.4 2 2.2 2.5.8.4 1.6.4 2.3 0 .8-.4 1.2-1.1 1.2-1.9 0-.9-.3-1.9-.9-3.1l-.3-.6zm18.5-1.9-3 1.7-8.7-5.2 4.3 7.7-3 1.7-7-12.4 3-1.7 8.7 5.3-4.3-7.7 3-1.7 7 12.3zm5.7-16.5-3.7 2.1 5.7 10.1-3 1.7-5.7-10.1-3.7 2.1-1.3-2.3 10.4-5.8 1.3 2.2zm11.7 3.7-4.1 2.3.6 2.7-3.2 1.8-2.4-15 2.8-1.6 11.5 9.8-3.2 1.8-2-1.8zm-4.7-.4 2.7-1.5-3.8-3.5 1.1 5zm18.3-9.7c.4.9.6 1.8.6 2.7-.1.9-.4 1.7-.9 2.5-.6.8-1.3 1.5-2.3 2-1.6.9-3.2 1.1-4.7.6s-2.8-1.8-3.9-3.7l-.3-.6c-.7-1.2-1.1-2.4-1.2-3.5-.1-1.2.1-2.2.6-3.1s1.3-1.7 2.3-2.3c1.5-.8 2.9-1.1 4.3-.8s2.5 1.1 3.4 2.4l-3 1.7c-.4-.7-.9-1.2-1.5-1.3-.5-.1-1.2 0-1.9.4s-1.1 1-1.2 1.8c0 .8.3 1.7 1 3l.5.9c.7 1.3 1.4 2.2 2.1 2.6s1.4.3 2.2-.1c.7-.4 1.1-.8 1.3-1.4.2-.5.1-1.1-.3-1.9l2.9-1.9zm7.6-12-3.7 2.1 5.7 10.1-3 1.7-5.7-10.1-3.7 2.1-1.3-2.3 10.4-5.8 1.3 2.2zm13.5-10.6 4.6 8.1c.5.9.8 1.8.8 2.7s-.3 1.7-.8 2.5-1.3 1.4-2.3 2c-1.5.8-2.9 1.1-4.2.8s-2.4-1.1-3.1-2.5l-4.6-8.2 3-1.7 4.6 8.2c.8 1.3 1.8 1.7 3 1 .6-.3 1-.8 1.1-1.3s0-1.2-.5-1.9l-4.5-8.1 2.9-1.6zm13.4 4.4a1.59 1.59 0 0 0-1-.8c-.4-.1-1.1 0-2.1.2-.9.2-1.7.3-2.3.3-2 .1-3.5-.5-4.2-1.9a3.19 3.19 0 0 1-.4-2.1c.1-.8.4-1.5 1-2.2a7.87 7.87 0 0 1 2.2-1.8c.9-.5 1.8-.8 2.7-.9s1.7.1 2.4.4c.7.4 1.3.9 1.7 1.7l-3 1.7c-.3-.5-.7-.8-1.1-.9-.5-.1-1 0-1.5.3s-.9.7-1.1 1.1-.2.8 0 1.2c.2.3.5.5 1 .6s1.2 0 2.2-.2 1.9-.3 2.6-.3c1.8 0 3 .7 3.8 2.1.6 1.1.7 2.2.2 3.2-.5 1.1-1.4 2-2.8 2.8-1 .6-2 .9-3 1s-1.9-.1-2.7-.4c-.8-.4-1.4-1-1.8-1.8l3-1.7c.4.7.8 1.1 1.3 1.2s1.2 0 1.9-.5c.5-.3.8-.6 1-1 .2-.5.2-.9 0-1.3z" class="S"/><defs><path id="B" d="m-942.2 2007.8-14 8s7.1-22.5 3.3-45.1c-1.4-8.6-4.5-12.8-5.6-15.1s-9.5-16.4-2-22.9 24.8 6.6 23.8 41.4c-.3 11.4-2.2 22.7-5.5 33.7z"/><path id="C" d="m-881 1757.6 127.1-73.4c.5-.3 1.1-.5 1.7-.5s1.2.2 1.7.5 1 .7 1.3 1.3c.3.5.5 1.1.5 1.7v277.5c0 9.3-6.6 20.6-14.6 25.3l-124 71.6c-.6.3-1.3.5-1.9.5-.7 0-1.3-.2-1.9-.5a3.16 3.16 0 0 1-1.4-1.4c-.3-.6-.5-1.3-.5-1.9v-279.7c-.1-7.8 5.4-17.2 12-21z"/><path id="D" d="M-757.1 1804a25.34 25.34 0 0 1-5.7-17.7c.4-6.4 3.1-12.5 7.8-16.9 4.6-4.5 10.7-7.1 17.2-7.2 6.4-.2 12.7 2 17.5 6.2s8 10.1 8.7 16.5-.9 12.8-4.7 18-9.3 8.8-15.6 10.1-12.8.2-18.4-3.1l-12.5 5.4 5.7-11.3z"/><path id="E" d="M-874.4 1881.7V2006c0 1.4.4 2.8 1.1 4a8.06 8.06 0 0 0 2.9 2.9c1.2.7 2.6 1.1 4 1.1s2.8-.4 4-1.1l66.9-38.6 11.9-6.8c4.1-2.4 7.5-5.8 9.8-9.8 2.4-4.1 3.6-8.7 3.6-13.4V1820c0-1.4-.4-2.8-1.1-4a8.06 8.06 0 0 0-2.9-2.9c-1.2-.7-2.6-1.1-4-1.1s-2.8.4-4 1.1l-78.8 45.5c-4.1 2.4-7.5 5.7-9.8 9.8s-3.6 8.5-3.6 13.3z"/><path id="F" d="M-838.3 1932.4c4 10.1 4.4 12.1 2 17.2-1.7 3.7-3 7.6-4 11.6 0 0 18.5 20.8 44.9 13l11.9-6.8c2.5-1.4 4.7-3.2 6.6-5.4l-3.6-26.9c-.2-1.4 0-2.9.4-4.2l3.8-11.1c1.8-5.4 2.1-11.3.8-16.8-1.3-5.6-4.2-10.7-8.3-14.7l-12.7-12.4-33.5 4.3-5 1.4a13.43 13.43 0 0 0-7.9 5.9c-1.8 2.9-2.6 6.3-2.1 9.7 1.5 11.7 4.1 28.8 6.7 35.2z"/><path id="G" d="M-838.6 1855.4c-3.6-6.2-3.6-13 0-15.1s9.5 1.3 13.1 7.5 3.6 13 0 15.1-9.5-1.3-13.1-7.5z"/><path id="H" d="M-842.2 1849.9c.1 2.2.8 4.3 1.9 6.2s2.6 3.5 4.5 4.7c3.5 2 6.3.4 6.3-3.7-.1-2.2-.8-4.3-1.9-6.2s-2.6-3.5-4.5-4.7c-3.5-1.9-6.3-.3-6.3 3.7z"/><path id="I" d="M-812.3 1868.6c.8 0 1.6-.2 2.4-.5l6.3-2.9c.1 0 .2-.1.3-.2s.1-.2.2-.3c0-.1.1-.2.1-.3s0-.2-.1-.3c0-.1-.1-.2-.2-.2-.1-.1-.2-.1-.3-.2h-.3c-.1 0-.2 0-.3.1l-6.3 2.9c-.8.4-1.7.5-2.6.3s-1.7-.6-2.3-1.2l-6-6.2c-.1-.1-.3-.2-.5-.2s-.4.1-.5.2-.2.3-.2.5.1.4.2.5l6 6.2c.5.5 1.2 1 1.9 1.3.7.4 1.4.5 2.2.5z"/><path id="J" d="M-805.3 1863.1c0 .6.2 1.1.5 1.6s.8.9 1.3 1.1 1.1.3 1.7.2 1.1-.4 1.5-.8.7-.9.8-1.5.1-1.2-.2-1.7c-.2-.5-.6-1-1.1-1.3s-1-.5-1.6-.5c-.8 0-1.5.3-2.1.9-.5.5-.8 1.2-.8 2z"/><path id="K" d="M-835.2 1829.2v7.3c0 .6.2 1.2.6 1.6.4.5.9.8 1.5.8.3 0 .7 0 1-.1s.6-.3.9-.5c.2-.2.4-.5.6-.8.1-.3.2-.6.2-1v-7.4c0-3.5.7-7.1 2.1-10.3 1.4-3.3 3.4-6.2 6-8.7s5.6-4.4 8.9-5.6c3.3-1.3 6.9-1.8 10.4-1.7-3.6-.7-7.3-1-10.9-1h-.9c-3.6 0-7.1 1.3-10 3.5-4.7 3.6-10.4 10.7-10.4 23.9z"/><path id="L" d="M-686.8 1796c.8-1.7 2.1-3.2 3.7-4.2l39.8-23c.5-.3 1-.5 1.5-.6.6-.1 1.1 0 1.6.2.1.1.2.1.3.2l8.7 5.1c-.5-.3-1.1-.4-1.7-.3-.6 0-1.2.3-1.6.6l-39.8 23c-1.6 1.1-2.9 2.6-3.8 4.4l-8.7-5.4z"/><path id="M" d="M-679.5 1850.9c0 2 .6 3.4 1.6 4l-8.6-5c-1.1-.6-1.8-2.1-1.8-4.2v-44.2c0-1.9.5-3.8 1.4-5.5l8.7 5.3c-.8 1.7-1.3 3.5-1.3 5.3v44.3z"/><path id="N" d="M-686.8 1874.8c.8-1.7 2.1-3.2 3.7-4.2l39.8-23c.5-.3 1-.5 1.5-.6.6-.1 1.1 0 1.6.2.1 0 .2.1.3.2l8.7 5.1c-.5-.3-1.1-.4-1.7-.4s-1.2.2-1.6.6l-39.8 23c-1.6 1.1-2.9 2.6-3.8 4.4l-8.7-5.3z"/><path id="O" d="M-679.5 1929.7c0 2 .6 3.4 1.6 4l-8.6-5c-1.1-.6-1.8-2-1.8-4.2v-44.2c0-1.9.5-3.8 1.4-5.5l8.7 5.3c-.8 1.7-1.3 3.5-1.3 5.3v44.3z"/><path id="P" d="M-686.8 1717.3c.8-1.7 2.1-3.2 3.7-4.2l39.8-23c.5-.3 1-.5 1.5-.6.6-.1 1.1 0 1.6.2.1.1.2.1.3.2l8.7 5.1c-.5-.3-1.1-.4-1.7-.4s-1.2.2-1.6.6l-39.8 23c-1.6 1.1-2.9 2.6-3.8 4.4l-8.7-5.3z"/></defs></svg>