<svg xmlns="http://www.w3.org/2000/svg" width="67" height="59" fill="none"><path opacity=".1" d="M61.1 33.4h-.2.1c-1.7-.5-2.9-2-2.9-3.8 0-1.2.6-2.3 1.5-3.1h1.6c3.2 0 5.8-2.6 5.8-5.8s-2.6-5.8-5.8-5.8h-3.8c-1.2-.7-2-2-2-3.5 0-1.4.8-2.7 1.9-3.4h2c2.2 0 4-1.8 4-4s-1.8-4-4-4H11.9c-2.2 0-4 1.8-4 4s1.8 4 4 4h2.2c1.1.7 1.9 2 1.9 3.4 0 1.5-.8 2.8-2 3.5H5.9c-3.2 0-5.8 2.6-5.8 5.8s2.6 5.8 5.8 5.8h11c.9.7 1.4 1.8 1.4 3.1 0 1.9-1.3 3.4-3 3.9H5.8c-3.2 0-5.8 2.6-5.8 5.8s2.6 5.8 5.8 5.8h13.4c.5.5.8 1.2.8 1.9s-.3 1.4-.8 1.9h-5.5c-2.7 0-4.8 2.2-4.8 4.8 0 2.7 2.2 4.8 4.8 4.8h45.7c2.7 0 4.8-2.2 4.8-4.8 0-2.7-2.2-4.8-4.8-4.8h-5.8c-.5-.5-.8-1.1-.8-1.9s.3-1.4.8-1.9h7.5c3.2 0 5.8-2.6 5.8-5.8 0-3.3-2.6-5.9-5.8-5.9z" fill="#41b872"/><path d="M40.508 36 41 35h-1l.508 1z" fill="#fff"/><path d="M51.033 43.053h-6.265a.957.957 0 0 0-.692.286.98.98 0 0 0-.287.691v5.999h-23.83V7.955h31.074v16.462L53 22.184V6.977a.953.953 0 0 0-.287-.691.988.988 0 0 0-.692-.286H18.98a.957.957 0 0 0-.692.286.98.98 0 0 0-.287.691v44.045c0 .261.101.514.287.691a.988.988 0 0 0 .692.286H46a.97.97 0 0 0 .692-.286l3.04-3.008 2.981-2.991a.98.98 0 0 0 .287-.691V27.559l-1.967 2.233v13.261zm-5.278 7.018v-5.055h5.244l-5.244 5.055z" fill="#3fb870"/><path d="m46 50 5-5h-5v5z" fill="#fff"/><path d="M47 18H27v3h20v-3zm0 5H24v3h23v-3zm-23 4v3h21.415L47 28.089V27H24zm0 5v2.983h11.677l-.696-.784-.853-.966a.523.523 0 0 1-.058-.595.48.48 0 0 1 .414-.241l.116.017 4.431 1.138a.54.54 0 0 1 .24.147L40.414 35h1.11L44 32.069v-.06H24V32z" fill="#3fb870"/><path d="m57.84 20.82-1.896-1.694a.495.495 0 0 0-.315-.126h-.033a.472.472 0 0 0-.331.168l-2.401 2.768-1.929 2.222-3.619 4.168-1.606 1.845-1.706 1.963-2.476 2.851-.547.629-.571-.629-1.143-1.266a.55.55 0 0 0-.24-.143l-4.43-1.107-.116-.017a.5.5 0 0 0-.414.235.5.5 0 0 0 .058.579l.853.939.696.763 4.041 4.462c.331.361.795.57 1.284.57a1.766 1.766 0 0 0 1.308-.595l8.62-9.921 1.929-2.222 5.018-5.778c.182-.176.166-.486-.033-.662z" fill="#41464a"/></svg>