<svg xmlns="http://www.w3.org/2000/svg" xmlns:xlink="http://www.w3.org/1999/xlink" width="67" height="59" fill="none"><path opacity=".1" d="M61.1 33.4h-.2.1c-1.7-.5-2.9-2-2.9-3.8 0-1.2.6-2.3 1.5-3.1h1.6c3.2 0 5.8-2.6 5.8-5.8s-2.6-5.8-5.8-5.8h-3.8c-1.2-.7-2-2-2-3.5 0-1.4.8-2.7 1.9-3.4h2c2.2 0 4-1.8 4-4s-1.8-4-4-4H11.9c-2.2 0-4 1.8-4 4s1.8 4 4 4h2.2c1.1.7 1.9 2 1.9 3.4 0 1.5-.8 2.8-2 3.5H5.9c-3.2 0-5.8 2.6-5.8 5.8s2.6 5.8 5.8 5.8h11c.9.7 1.4 1.8 1.4 3.1 0 1.9-1.3 3.4-3 3.9H5.8c-3.2 0-5.8 2.6-5.8 5.8s2.6 5.8 5.8 5.8h13.4c.5.5.8 1.2.8 1.9s-.3 1.4-.8 1.9h-5.5c-2.7 0-4.8 2.2-4.8 4.8 0 2.7 2.2 4.8 4.8 4.8h45.7c2.7 0 4.8-2.2 4.8-4.8 0-2.7-2.2-4.8-4.8-4.8h-5.8c-.5-.5-.8-1.1-.8-1.9s.3-1.4.8-1.9h7.5c3.2 0 5.8-2.6 5.8-5.8 0-3.3-2.6-5.9-5.8-5.9z" fill="#41b872"/><g fill="#3fb870"><path d="M56.341 44.533H12v2.771h44.341v-2.771z"/><path d="M19.76 35.111h-2.633v9.423h2.633v-9.422zm10.53-4.157h-2.633v13.579h2.633V30.954zm10.531-3.049h-2.633v16.628h2.633V27.905zm10.532-4.156H48.72v20.785h2.633V23.749z"/></g><g stroke="#3fb870" stroke-miterlimit="10"><use xlink:href="#a"/><use xlink:href="#a" x="10.531" y="-1.801"/><use xlink:href="#a" x="21.062" y="-.277"/><path d="M49.967 15.711a2.355 2.355 0 1 0 0-4.71 2.355 2.355 0 0 0 0 4.71zM20.729 18.76l5.958-1.247M31.26 16.959l5.82 1.524m4.712 0 5.82-3.741"/></g><defs><path id="a" d="M18.374 21.116a2.356 2.356 0 1 0 0-4.712 2.356 2.356 0 0 0 0 4.712z"/></defs></svg>