<svg xmlns="http://www.w3.org/2000/svg" xmlns:xlink="http://www.w3.org/1999/xlink" width="204" height="200" fill="none"><style>.B{stroke:#263238}.C{stroke-linejoin:round}.D{stroke-linecap:round}.E{fill:#fff}.F{fill:#263238}.G{stroke-miterlimit:10}.H{fill:#92e3a9}.I{fill:#000}.J{fill:#3fb870}.K{opacity:.3}.L{opacity:.1}.M{stroke-width:1.177}</style><g clip-path="url(#A)"><use xlink:href="#B" class="H"/><use xlink:href="#B" opacity=".7" class="E"/><use xlink:href="#C" class="H"/><g class="E"><use xlink:href="#C" opacity=".5"/><use xlink:href="#D"/></g><use xlink:href="#E" class="J"/><g class="B C"><use xlink:href="#D"/><use xlink:href="#E"/></g><path d="M32.64 14.948a1.081 1.081 0 0 1-.667 1.006 1.089 1.089 0 0 1-1.185-.232 1.086 1.086 0 1 1 1.852-.775zm5.663 0a1.081 1.081 0 0 1-.667 1.006 1.089 1.089 0 0 1-1.185-.232 1.086 1.086 0 1 1 1.852-.775zm4.578 1.085a1.089 1.089 0 0 0 .767-1.853 1.085 1.085 0 1 0-.767 1.853z" class="F"/><g class="B"><g class="C"><path d="M59.289 22.606H28.64a1.75 1.75 0 0 0-1.749 1.749v14.744a1.75 1.75 0 0 0 1.749 1.749h30.649a1.75 1.75 0 0 0 1.749-1.749V24.355a1.75 1.75 0 0 0-1.749-1.749z"/><path d="M28.901 38.554h29.607" class="D"/></g><g class="G"><path d="M34.536 35.071H31.1v3.436h3.436v-3.436zm5.028-4.517h-3.436v8h3.436v-8zm5.664 1.374h-3.436v6.706h3.436v-6.706zm5.953-6.678h-3.436v13.152h3.436V25.251zm5.948.104h-3.436v13.152h3.436v-13.15z" class="J"/><path d="M103.374 41.791a9.61 9.61 0 0 0 9.607-9.607 9.61 9.61 0 0 0-9.607-9.607 9.61 9.61 0 0 0-9.606 9.607 9.61 9.61 0 0 0 9.606 9.607z" class="H"/></g></g><path d="M104.161 38.175v.986h-1.611v-.986a2.93 2.93 0 0 1-2.237-2.986v-.446l1.825-.199v.474c0 .915.473 1.469 1.218 1.469a1.12 1.12 0 0 0 1.143-.724 1.13 1.13 0 0 0 .07-.475c0-.877-.82-1.63-1.787-2.431-1.147-.948-2.289-2.076-2.289-3.668s.749-2.668 2.057-2.99v-.991h1.611v.981c1.322.308 2.09 1.422 2.09 3.01v.322l-1.824.194v-.332c0-.948-.375-1.469-1.038-1.469s-1.038.412-1.038 1.199c0 .877.843 1.611 1.791 2.431 1.128.948 2.289 2.076 2.289 3.668a2.91 2.91 0 0 1-2.27 2.962z" class="F"/><g class="C"><path d="M26.095 50.166H28.9m-2.806 5.422H28.9m-2.806 5.426H28.9m-2.806 5.422H28.9m6.185 4.095v-2.18m4.446 2.18v-2.18m4.445 2.18v-2.18m4.45 2.18v-2.18m4.446 2.18v-2.18m4.446 2.18v-2.18m4.445 2.18v-2.18m4.45 2.18v-2.18m4.445 2.18v-2.18m4.446 2.18v-2.18m4.445 2.18v-2.18m4.45 2.18v-2.18m4.446 2.18v-2.18m4.445 2.18v-2.18m4.445 2.18v-2.18m4.28 2.18v-2.18m4.28 2.18v-2.18m4.275 2.18v-2.18" class="B D"/><path d="M121.488 46.848V67.92c0 1.445-1.469 2.611-3.279 2.611H29.384a3.513 3.513 0 0 1-2.844-1.284 2.24 2.24 0 0 1-.474-1.327V46.848c0-1.422 1.469-2.611 3.28-2.611h88.863c1.81 0 3.279 1.166 3.279 2.611z" stroke="#92e3a9"/></g><g class="F"><path d="M94.455 6.038 66.1 44.237 55.256 58.844l-11.848-7.545L28.91 70.531h-.209c-.455 0-.901-.118-1.296-.343a2.61 2.61 0 0 1-.955-.941L42.739 47.63l11.848 7.531 8.109-10.901L92.265 4.45l2.189 1.588z"/><path d="M87.261 6.521 97.682.204 94.8 11.133l-1.839-5.057-5.701.446z"/></g><g class="B C D"><path d="M185.891 126.787H19.213L.531 143.398m18.787-28.242V82.858M19.318 124.91v-6.246"/></g><g class="H"><path d="M175.858 48.209s0-1.953-2.735-4.682l-4.488-4.294s-1.37 4.488 1.171 7.223a47.862 47.862 0 0 0 6.052 5.28V48.21zm-3.967 12.194s0-1.953-2.735-4.687l-4.488-4.294s-1.365 4.488 1.171 7.223a48.581 48.581 0 0 0 6.052 5.284v-3.526z"/><path d="M175.682 51.536s.209-1.943 3.214-4.374l4.919-3.791s.882 4.621-1.929 7.057a48.13 48.13 0 0 1-6.573 4.602l.369-3.493zm-4.791 14.398s.412-1.896 3.654-4.009l5.284-3.261s.394 4.678-2.644 6.82a47.854 47.854 0 0 1-7.019 3.882l.725-3.431zm.905 15.692s0-1.953 2.73-4.682l4.488-4.294s1.37 4.493-1.17 7.223a47.48 47.48 0 0 1-6.048 5.284v-3.531zm-.047 3.834s.275-1.934-2.043-5.024l-3.829-4.891s-1.981 4.265.137 7.317a48.14 48.14 0 0 0 5.242 6.076l.493-3.479zm-2.697 11.351s0-1.948 2.735-4.683l4.488-4.265s1.37 4.488-1.171 7.218a47.744 47.744 0 0 1-6.052 5.284V96.81zm1.825 10.299s-.474-1.896 1.464-5.213l3.256-5.285s2.455 4 .697 7.285a48 48 0 0 1-4.522 6.635l-.895-3.422z"/></g><g class="B C D M"><path d="M176.104 47.725a55.073 55.073 0 0 1-.749 6.057c-1.08 5.583-3.791 9.185-4.862 14.218s2.024 11.54 1.194 18.01-3.355 10.076-2.644 14.398 4.502 16.019 4.502 16.019"/><path d="m175.659 52.834 2.943-2.265m-2.811-.336-1.227-2.194m-3.905 19.735 5-3.701m-3.768-.166s-2.057-4.028-4.384-6.701m4.384 27.199a30.62 30.62 0 0 1 5.284-7.052m-5.763 9.792a34.68 34.68 0 0 0-2.692-5.076l-1.649-2.398m1.981 20.735a32.97 32.97 0 0 1 2.223-4.493 29.07 29.07 0 0 1 2.872-3.791m-2.379 18.389a8.35 8.35 0 0 1 .739-4.322l2.673-5.616"/></g><g class="H"><path d="M157.962 74.284s-.213-1.218 1.204-3.232l2.369-3.185s1.342 2.663.048 4.654a30.328 30.328 0 0 1-3.223 3.962l-.398-2.199zm3.81 7.232s-.213-1.227 1.204-3.237l2.37-3.18s1.341 2.668.047 4.654a30.06 30.06 0 0 1-3.222 3.962l-.399-2.199z"/><path d="M158.431 76.351s-.332-1.194-2.488-2.37l-3.498-1.848s-.052 2.972 1.981 4.218a30.448 30.448 0 0 0 4.621 2.171l-.616-2.171zM163 84.858s-.474-1.152-2.73-2.114l-3.673-1.469s.261 2.972 2.408 3.986a30.57 30.57 0 0 0 4.824 1.673L163 84.858zm1.137 9.929s-.213-1.223-2.222-2.64l-3.285-2.209s-.369 2.972 1.522 4.403a30.26 30.26 0 0 0 4.365 2.64l-.38-2.194z"/><path d="M164.578 97.199s-.384-1.18.735-3.37l1.895-3.484s1.707 2.445.711 4.602a30.9 30.9 0 0 1-2.644 4.379l-.697-2.128zm3.431 9.872s.143-1.232 2.067-2.763l3.151-2.37s.541 2.939-1.265 4.484a30.84 30.84 0 0 1-4.204 2.891l.251-2.242zm-.507-3.043s-.213-1.227-2.222-2.644L162 99.18s-.37 2.972 1.516 4.403c1.381 1 2.842 1.883 4.37 2.64l-.384-2.195zm-.028 6.654s.109-1.241-1.479-3.118l-2.616-2.972s-1.109 2.773.355 4.645a30.997 30.997 0 0 0 3.555 3.673l.185-2.228z"/></g><g class="B C D M"><path d="M157.749 74c.308 1.26.687 2.502 1.133 3.72 1.279 3.379 3.365 5.346 4.587 8.389s0 7.455 1.209 11.422 3.199 5.943 3.213 8.744-1.066 10.54-1.066 10.54"/><path d="m158.588 77.161-2.09-1.095m1.72-.521.536-1.507m4.592 11.943-3.536-1.777m2.342-.488a25.08 25.08 0 0 1 2.023-4.673m.204 17.507a19.507 19.507 0 0 0-4.076-3.848m4.673 5.516a21.72 21.72 0 0 1 1.124-3.464l.772-1.687m.929 15.323a18.2 18.2 0 0 1 2.246-2.332c.52-.386 1.009-.812 1.46-1.275m-3.616 1.493a21.19 21.19 0 0 0-1.896-2.574 18.527 18.527 0 0 0-2.213-2.052m3.517 11.261a5.355 5.355 0 0 0-.948-2.64l-2.285-3.237"/></g><g class="F"><path d="M176.389 130.161h-12.446a.947.947 0 0 1-.662-.269.95.95 0 0 1-.286-.655l-1.787-13.772h17.877l-1.786 13.772a.947.947 0 0 1-.91.924z"/><path d="M178.943 117.792h-17.716a1.395 1.395 0 0 1-.984-.403 1.4 1.4 0 0 1-.414-.981 1.424 1.424 0 0 1 1.394-1.398h17.72a1.4 1.4 0 0 1 .989.406 1.4 1.4 0 0 1 .303.453 1.375 1.375 0 0 1-.001 1.067c-.07.169-.174.322-.304.451a1.39 1.39 0 0 1-.453.3 1.415 1.415 0 0 1-.534.105z"/></g><path d="M139.005 62.706a17.203 17.203 0 0 1-3.741 10.708 17.21 17.21 0 0 1-9.591 6.055h-.052c-.45.1-.901.19-1.365.256a17.58 17.58 0 0 1-2.46.175 17.206 17.206 0 0 1-12.015-4.95 17.21 17.21 0 0 1-.445-24.063 17.207 17.207 0 0 1 11.825-5.39h.474a.82.82 0 0 1 .152 0 1.09 1.09 0 0 1 .175 0c2.322.015 4.616.507 6.739 1.445a17.2 17.2 0 0 1 7.499 6.347 17.21 17.21 0 0 1 2.805 9.416z" class="J"/><path opacity=".4" d="M128.711 46.948c-19.872-1.033-19.967 21.028-19.967 21.028s-3.033-7.199 1.919-15.166c2.768-4.46 7.583-6.426 11.309-7.298 2.321.012 4.614.501 6.739 1.436z" class="E"/><g class="B"><g class="C"><path d="M139.005 62.706a17.21 17.21 0 0 1-3.756 10.731 17.209 17.209 0 0 1-9.628 6.046 16.92 16.92 0 0 1-3.825.431 17.21 17.21 0 0 1-12.261-4.816 17.214 17.214 0 0 1-.449-24.336 17.208 17.208 0 0 1 12.075-5.265h.635a17.212 17.212 0 0 1 17.209 17.209z"/><path d="M139.005 62.706a17.21 17.21 0 0 1-3.756 10.731 17.209 17.209 0 0 1-9.628 6.046h-.635a17.21 17.21 0 0 1-17.06-15.288 17.212 17.212 0 0 1 3.056-11.87 17.21 17.21 0 0 1 10.179-6.828h.635a17.212 17.212 0 0 1 17.209 17.209z"/></g><path d="m127.725 73.46.446 1.82-2.977.725-.445-1.815c-2.664 0-4.801-1.73-5.484-4.507l-.203-.825 3.284-1.19.209.858c.412 1.687 1.526 2.498 2.914 2.156.305-.047.596-.161.853-.331a2.12 2.12 0 0 0 .635-.658 2.13 2.13 0 0 0 .214-1.774c-.398-1.621-2.256-2.635-4.408-3.683-2.545-1.232-5.171-2.796-5.891-5.739-.701-2.872.18-5.265 2.45-6.45l-.445-1.82 2.971-.725.446 1.815c2.583-.038 4.507 1.663 5.213 4.602l.147.597-3.28 1.19-.165-.659c-.436-1.787-1.356-2.54-2.579-2.242s-1.729 1.232-1.374 2.682c.398 1.621 2.28 2.597 4.408 3.687 2.516 1.275 5.17 2.796 5.891 5.735.725 2.829-.432 5.351-2.83 6.55z" class="G"/></g><path d="m127.725 73.46.446 1.82-2.977.725-.445-1.815c-2.664 0-4.801-1.73-5.484-4.507l-.203-.825 3.284-1.19.208.858c.413 1.687 1.527 2.498 2.915 2.156.305-.047.596-.161.853-.331a2.12 2.12 0 0 0 .635-.658 2.13 2.13 0 0 0 .302-.864 2.141 2.141 0 0 0-.088-.91c-.399-1.621-2.256-2.635-4.408-3.683-2.545-1.232-5.171-2.796-5.891-5.739-.701-2.872.18-5.265 2.45-6.45l-.445-1.82 2.971-.725.446 1.815c2.583-.038 4.507 1.663 5.213 4.602l.147.597-3.28 1.19-.166-.659c-.436-1.787-1.355-2.54-2.578-2.242s-1.73 1.232-1.374 2.682c.398 1.621 2.279 2.597 4.407 3.687 2.517 1.275 5.171 2.796 5.891 5.735.726 2.829-.431 5.351-2.829 6.55z" class="I K"/><path d="m113 77.503 3.635-.166m-5.384-1.043 3.171-.27m-4.593-1.005 3.171-.27m-3.607-23.976h2.716m-1.374-1.251 2.706-.123m-1.01-1.133 2.853-.27" class="B C D"/><g class="I"><path d="M125.673 79.469h-.052a16.868 16.868 0 0 1-3.825.431 17.206 17.206 0 0 1-12.015-4.95 17.21 17.21 0 0 1-.445-24.063 17.207 17.207 0 0 1 11.825-5.39h.474c-4.194 1.322-11.232 4.701-13.114 11.749-2.658 10.014 3.327 21.384 17.152 22.223z" class="K"/><path d="M139.005 62.706a17.203 17.203 0 0 1-3.741 10.708 17.21 17.21 0 0 1-9.591 6.055h-.052c-.45.1-.901.19-1.365.256l4.455-32.791a17.208 17.208 0 0 1 7.496 6.353 17.21 17.21 0 0 1 2.798 9.419z" class="L"/></g><path d="M148.768 35.616a10.43 10.43 0 0 1-5.602 3.988 10.427 10.427 0 0 1-6.867-.367l-.062-.028c-.324-.142-.64-.3-.948-.474a9.31 9.31 0 0 1-1.005-.626 10.426 10.426 0 0 1-3.952-6.548 10.43 10.43 0 0 1 7.842-11.875 10.43 10.43 0 0 1 7.575 1.064l.232.147c.109.062.213.137.322.213l.474.356a10.43 10.43 0 0 1 1.991 14.152z" class="J"/><path opacity=".4" d="M133.062 35.758s-1.702-5.009.559-8.697c2.843-4.621 7.199-6.73 13.128-5.592 0 0-3.213-2.171-8.593-.63s-8.265 8.943-5.094 14.919z" class="E"/><g class="B"><g class="C"><path d="M148.768 35.621a10.43 10.43 0 0 1-5.604 3.983 10.422 10.422 0 0 1-8.903-1.491 10.426 10.426 0 0 1-3.948-6.617 10.43 10.43 0 0 1 8.054-11.839 10.43 10.43 0 0 1 7.605 1.242l.317.209a10.425 10.425 0 0 1 2.479 14.512z"/><path d="M148.768 35.621a10.43 10.43 0 0 1-5.604 3.983 10.422 10.422 0 0 1-6.865-.372l-.318-.209a10.426 10.426 0 0 1-4.056-6.168 10.43 10.43 0 0 1 1.044-7.308 10.428 10.428 0 0 1 13.003-4.648l.317.209a10.42 10.42 0 0 1 4.238 6.744 10.426 10.426 0 0 1-1.759 7.768z"/></g><use xlink:href="#F" class="G"/></g><g class="I"><use xlink:href="#F" class="K"/><path d="M145.725 20.754c-2.844-.507-6.445-.787-8.389.474-3.568 2.289-5.791 5.175-5.758 9.853s4.403 7.957 4.403 7.957l.256.185a10.22 10.22 0 0 1-1.976-1.095 10.43 10.43 0 0 1-3.953-6.549 10.428 10.428 0 0 1 1.581-7.484 10.42 10.42 0 0 1 6.262-4.392 10.421 10.421 0 0 1 7.574 1.064v-.014z" class="K"/><path d="M148.768 35.616a10.43 10.43 0 0 1-5.602 3.988 10.427 10.427 0 0 1-6.867-.367l-.062-.028a10.66 10.66 0 0 1-.948-.474l11.46-17.265a10.423 10.423 0 0 1 3.814 6.674 10.43 10.43 0 0 1-1.795 7.474z" class="L"/></g><use xlink:href="#G" class="H"/><use xlink:href="#G" opacity=".4" class="E"/><g class="B"><path d="m111.848 96.46-1.668-1.365c-5.213-4.318-9.64-9.417-15.839-12.36a42.357 42.357 0 0 0-28.479-2.938c-12.545 3.114-28.104 7.91-33.649 20.92-3.237 7.583-2.014 16.227-1.464 24.218 2.057 29.568 18.066 56.203 48.242 63.516 16.417 3.981 34.124 2.891 48.849-5.933a62.595 62.595 0 0 0 15.564-13.436c9.81-11.659 17.355-27.252 8.422-41.574-5.602-9.005-14.583-14.033-23.361-19.384a156.368 156.368 0 0 1-16.616-11.663z" class="G"/><path d="M66.138 149.185a43.37 43.37 0 0 0-7.284 2.948m22.664-5.877c-3.67.317-7.313.896-10.9 1.73m7.701-2.488s-14.161-8.237-31.251-1.635" class="C D"/></g><path d="M143.403 169.081a62.595 62.595 0 0 1-15.564 13.436 55.193 55.193 0 0 1-5.687 2.966 44.585 44.585 0 0 1-4.536-1.663c-8.843-3.792-16.265-10.204-23.516-16.526-4.374-3.792-8.82-7.678-14.057-10.176a32.334 32.334 0 0 0-22.673-1.867A25.465 25.465 0 0 1 72.365 147c-3.744-3.408-8.953-4.839-14.014-4.929s-7.848.531-12.796 1.64c1.654-3.043 6.043-5.796 9.507-5.716a86.04 86.04 0 0 1-9.848-.696c-4.469-.721-6.469-5.981-7.137-10.455-1.848-12.323.024-25.446 6.749-35.92a36.595 36.595 0 0 1 4.597-5.815c5.374-2.393 11.18-4 16.455-5.313a42.333 42.333 0 0 1 28.479 2.938c6.203 2.943 10.62 8.057 15.838 12.365l1.669 1.36a156.4 156.4 0 0 0 16.587 11.663c8.773 5.351 17.754 10.398 23.36 19.384 8.948 14.322 1.403 29.915-8.407 41.574z" class="I L"/><path d="M148.341 168.72a92.023 92.023 0 0 0 8.327 6.162c5.635.379 3.109 7.189 3.109 7.189l-4.824 3.104s-8.261-6.564-12.773-8.692 6.161-7.763 6.161-7.763z" class="E"/><use xlink:href="#H" class="I K"/><use xlink:href="#H" class="J"/><g class="I"><path opacity=".05" d="M107.234 98.39s-.772-7.644-2.005-9.791l-18.71-3.811v-1.45s.431-2.521-3.739-4.1-12.862.474-15.104 2.171-1.422 4.616-1.422 4.616-7.536 3.806-10.92 5.256a86.52 86.52 0 0 0-8.09 4.265s-1.536 17.574-1.232 21.654-.247 7.92.104 10.181.626 3.545 2.995 5.469 4.526 4.739 10.739 1.948l-.867-.688 40.9-13.777 7.351-21.943z"/><path d="M106.54 88.152h-7.829a3.112 3.112 0 0 0-3.066 2.602l-3.858 23.222s-5.313.441-9.076 3.185-13.019-16.834-27.644-16.844c0 0 4.209 9.621 5.142 17.299 0 0-9.142-.995-10.659 2.583s.687 10.284 4.555 7.687 7.507-6.929 10.09-4.189 14.123 4.213 14.123 4.213l17.758-8.953 6.886-3.237 3.578-27.568z" class="L"/></g><path opacity=".4" d="M81.682 76.64s4.445 1.232 5.166 2.725.645 5.27.645 5.27a18.239 18.239 0 0 1-4.782 6.578l-3.318-6.578.299 7.46s-6.294-1.047-8.967-3.057l-2.668-2.014s-1.152-3.791-.986-5.076 4.967-3.891 4.967-3.891l9.645-1.417z" class="E"/><g class="H"><path d="M155.73 191.668c-.123-.27 1.825-3.71.298-7.213s-3.957-2.151-3.957-2.151-6.924-4.408-9.834-5.801a49.582 49.582 0 0 1-6.043-3.593l-3.075 4.142 2.843 8.797 19.768 5.819z"/><path d="m151.82 182.09 8.891 5.431s6.251-4.009 9.232-6.777 9.678-8.663 9.678-8.663l4.265-5.74s-2.957-3.658-7.886-.72c-6.37 3.791-14.137 9.299-19.317 9.246 0 0 1.018 6.365-4.83 7.223"/></g><g class="E"><path d="M80.175 53.664s4.033 6.104 4.768 8.081 1.327 4.9 1.18 6.308-1.626 8.948-2.37 9.166l-.716.81.474 3.194s-3.156 5.455-12.436 1.455c0 0-.36-6.37-1.488-8.37s-2.815.379-4.507-5.398 3.697-11.848 3.697-11.848l11.398-3.398z"/><path opacity=".5" d="M180.014 164.559s-4.573.797-6.057 3.503-4.331 7.734-5.303 10.166-9.005 8.303-9.005 8.303l1.067.99s6.54-4.042 10.488-7.886 12.654-13.512 12.654-13.512-.626-.621-3.844-1.564zm-45.763 10.972-1.133 1.521 3.479 7.213 19.133 6.877.886-2.801s.294-2.843-6.422-5.004-10.81-3.588-12.72-5.072-3.223-2.734-3.223-2.734z"/><path d="M71.09 121.957s-5.858-.881-8.592 3.91-2.455 6.868-2.455 6.868 3.872 3.516 9.194 3.317 13.071-6.294 15.597-8.279 8.896-7.669 13.242-6.493l.474-4.109s-.427-1.844-4.142-1.346-5.175 2.616-6.374 2.616-2.332-1.152-4.739 2.962c-.005 0-8.455 1.498-12.204.554z"/></g><path d="M78.701 62.441a16.95 16.95 0 0 0 .531 2.27 2.64 2.64 0 0 0 .474 1c.446.474 1.166.597 1.825.697a.5.5 0 0 1 .294.123.473.473 0 0 1 .071.284 3.79 3.79 0 0 1-.645 2.095" class="B C D"/><path d="m138.18 170.616-3.929 4.896s4.313 3.986 8.777 5.464 12.28 4.266 13.588 6.413l-.502-2.555-15.029-9.289a6.455 6.455 0 0 1-2.026-2.126 6.47 6.47 0 0 1-.879-2.803zm13.64 11.474 7.825 4.441s3.862-2.645 5.758-4.593 4.232-4.109 5.687-8.473c1.986-6.034 7.673-8.906 7.673-8.906s-7.91 3.725-12.028 6.635-8.133 4.143-10.465 3.944c-.024.014 1.849 5.938-4.45 6.952z" class="I L"/><path d="M75.943 69.986s3.076 2.412 6.27 1.507c0 0-3.014 5.972-6.27-1.507z" class="B C E"/><path d="M75.829 64.772c.09.663-.114 1.237-.446 1.284s-.678-.474-.768-1.123.109-1.237.445-1.284.697.46.768 1.123zm6.697-1.209c.085.668-.114 1.242-.445 1.284s-.683-.474-.768-1.118.109-1.242.446-1.284.678.455.768 1.118z" class="F"/><path d="M75.355 61.957s-1.791-.924-3.066 1.057m7.659-2.289s1.896-1.626 2.991 0M69.27 68.057s-1.152-1.701-2.37-1.649-1.701 1.758-1.265 3.408 2.251 3.953 3.626 3.735a3.05 3.05 0 0 0 1.976-1.1m9.076-17.412c1.294 1.076 2.663 2.247 3.318 3.829.578 1.346.706 2.844 1.237 4.204.564 1.455 1.18 2.976 1.228 4.564a19.34 19.34 0 0 1-.574 4.355 23.99 23.99 0 0 1-.877 3.645c-.64 1.701-1.82 2.749-3.403 3.554-1.152.588-3.071 1.422-4.318.635-.725-.474-1.815-1.829-2.72-3.076M69.27 73.55s2.038 4.995 1.545 8.507" class="B C D"/><g class="F"><path d="M68.749 67.218a1.968 1.968 0 0 0 .787-1.759c-.076-.768-.607-1.479-.502-2.246a4.13 4.13 0 0 1 .408-1.052 4.41 4.41 0 0 0-.246-3.991s6.474.303 9.507-1.626 5.346-6.862 3.512-9.218-5.408.858-8.057 1.213-12.071 1.858-13.573 5.488.787 4.934.858 8.398.071 10.028 5.251 9.427c0 0-1.938-2.507-.592-5.09.915-1.085 2.649.455 2.649.455z"/><path d="M81.446 51.422a8.128 8.128 0 0 1 3.099 5.687c.289 2.597 4.896 7.645 1.573 10.521 0 0-.772-3.057-1.227-4.564s-1.038-4.265-1.801-5.213-4.81-4.265-4.81-4.265l3.166-2.166z"/></g><path d="M69.867 81.948s3.194 2.104 9.128 2.19l.697 7.957s-6.673-.507-11.635-5.071c0 0-1.341-3.55-.986-5.076s3.545-3.038 3.545-3.038m12.673-.521.19 2.844a11.76 11.76 0 0 1-4.484 2.915l3.716 7.076s4.431-3.45 4.872-7.076c0 0 .038-3.711-.735-4.773s-3.588-1.559-3.588-1.559" class="B C D"/><path opacity=".8" d="M65.308 56.398c.474-1.19 1.773-1.896 3.038-2.085s2.564-.057 3.844-.09a9.86 9.86 0 0 0 5.024-1.422 6.71 6.71 0 0 0 1.929-1.774c.52-.712.896-1.52 1.104-2.378m-17.995 7.517c.801-2.431 3.398-3.934 5.953-4.147 1.265-.109 2.545.038 3.791-.109s2.573-.668 3.232-1.753" stroke="#fff" class="C D"/><path d="M60.905 133.422c-6.161 3.194-8.351-.095-11.782-2.815s-1.18-7.583-1.896-15.379 1.066-21.057 1.066-21.057 1.536-.351 5.796-2.957 13.227-6.578 13.227-6.578m-.308 36.986s-.976-3.095-3.735-3.175-7.109 1.161-10.209 7.023m9.578-7.208a1.557 1.557 0 0 1-.498-.119 12 12 0 0 0-7.081-.322m-1.588-19.417c5.019 5.545 7.464 12.881 9.782 19.99m24.322-34.981s9.1 2.171 13.545 2.687 5.166 1.137 5.166 1.137l.829 3.1" class="B C D"/><path d="m129.986 88.806-30.991 1.189-2.531 31.872h5.308l26.909-6.023 3.384-26.275-2.08-.763z" class="E"/><path d="m98.076 122.81 33.896-32.488-3.29 25.522-30.606 6.966z" class="H"/><path opacity=".7" d="m98.076 122.81 33.896-32.488-3.29 25.522-30.606 6.966z" class="E"/><path d="m98.076 121.957 2.711-30.744 31.279-1.645-3.384 26.275-30.606 6.113z" class="B C"/><path d="M118.881 104.464c-.208 1.873-1.208 3.294-2.232 3.181s-1.677-1.73-1.469-3.602 1.213-3.294 2.237-3.18 1.678 1.729 1.464 3.601zm9.801 11.38s14.323-.408 18.801 2.549 7.109 17.787 6.489 25.664-6.024 25.952-6.024 25.952l-10.351-11.715s-5.099-18.54-2.317-25.801c0 0-13.745.772-19.157-.924 0 0-4.848-7.939-13.161-10.564l25.72-5.161z" class="F"/><path d="M150.133 170.318a71.064 71.064 0 0 1-9.849-11.375c-5.009-7.739-11.933-15.166-19.056-20.962-5.74-4.654-7.038-12.237-14.119-16.043-11.73-6.289-21.872 6.209-25.663 8.74s-10.355 5.398-10.355 5.398 2.398 9.005 9.441 10.071 14.166-3.792 17.536-1.446 5.863 12.82 16.991 18.958c9.095 5.014 21.488 9.905 27.881 13.204 1.422.739 2.484 1.516 3.29 1.957 2.208 1.204 4.568 2.621 6.796 4.024l7.673 4.673s7.701-4.555 10.658-8.754c.394-.564 1.214-2.066 1.982-3.517 1.673-3.17 3.791-6.014 6.725-7.583 2.028-1.094 3.834-1.421 3.791-1.535-.194-.36-3.872-2.242-6.37-1.213-5.289 2.185-15.862 10.578-20.853 9.952a37.356 37.356 0 0 1-6.497-4.549z" class="B G"/><path d="M150.133 170.317c-4.612 1.863-6.469 4.74-7.18 6.55-6.394-3.317-18.787-8.189-27.882-13.204-11.128-6.161-13.602-16.616-16.99-18.957s-10.517 2.531-17.535 1.446-9.455-10.081-9.455-10.081 6.569-2.844 10.36-5.374 12.535-15.034 25.659-8.74c7.246 3.474 8.379 11.375 14.119 16.043 7.109 5.777 14.047 13.223 19.056 20.962a69.644 69.644 0 0 0 9.849 11.355z" class="F"/><g class="C D"><path d="M115.479 130.137s-3.55-7.213-9.242-8.611" stroke="#fff"/><path d="M96.872 115.777c-3.915-.853-8.213 3.474-10.024 2.664-1.346-.602-3.559 2.962-3.559 2.962a59.226 59.226 0 0 1-11.005.554c-5.275-.336-7.773.692-9.64 3.512l-2.607 6.905s6.877 6.162 14.218 2.574 17.095-14.412 23.815-14.375" class="B"/></g><path d="M151.521 181.905s6.427.526 4.92-7.151" class="B G"/><path d="M181.806 170.01c-.474.947-6.365 5.962-11.441 10.346 0-.067 1.422-2.745 2.009-3.887 1.351-2.521 4.839-9.436 11.479-10.346.943.569-2.047 3.887-2.047 3.887z" class="F"/><path d="M179.28 164.611c-6.716 1.337-8.242 9.953-10.626 13.616s-9.005 8.645-9.005 8.645m-3.621-2.199c1.095 2 .579 4.322 0 5.777a11.997 11.997 0 0 1-1.052 2.071c-9.507-1.564-19.014-6.673-19.014-6.673l-2.45-7.583-.393-1.213 3.691-4.971" class="B G"/><path d="M156.028 190.45a11.997 11.997 0 0 1-1.052 2.071c-9.507-1.564-19.014-6.673-19.014-6.673l-2.45-7.583c1.227 1.602 3.502 3.948 6.915 4.91 4.63 1.313 13.175 2.849 15.601 7.275z" class="F"/><g class="B"><path d="m96.465 120.758 2.531-30.763 30.991-1.189 2.08.763" class="C D"/><path d="M156.398 178.227s4.237.759 7.493-1.895 8.502-8.659 8.502-8.659" class="G"/><path d="M160.711 174.408s-1.024 1.54 0 4.63m3.005-6.104a6.303 6.303 0 0 0 .384 4.63m3.199-6.706s-.858 2.573 0 4.844" class="C D"/><path d="m137.649 171.441-3.398 4.09s3.422 3.739 8.251 5.294 13.455 4.194 14.171 7.004" class="G"/></g></g><defs><path id="B" d="M141.474 9.872C131.133 15.787 123.839 25.735 115 33.72a85.16 85.16 0 0 1-38.825 19.905c-11.848 2.564-24.227 2.602-35.644 6.635C18.256 68.076 3 91.27 2.616 114.853s13.033 46.446 32.754 59.375a78.488 78.488 0 0 0 21.801 9.928c14.502 4.081 29.881 3.901 44.867 2.342 25.886-2.697 53.024-17.398 69.341-38.124a148.67 148.67 0 0 0 18.313-30.071 149.98 149.98 0 0 0 13.516-55.995c.688-16.588 0-34.976-13.161-47.066S156.9 1.043 141.474 9.872z"/><path id="C" d="M114.265 199.787c46.939 0 84.991-10.249 84.991-22.891s-38.052-22.891-84.991-22.891-84.99 10.248-84.99 22.891 38.052 22.891 84.99 22.891z"/><path id="D" d="M124.626 11.991h-99.92a4.24 4.24 0 0 0-4.242 4.242v56.014a4.24 4.24 0 0 0 4.242 4.242h99.92a4.24 4.24 0 0 0 2.999-1.242 4.242 4.242 0 0 0 1.242-2.999V16.232a4.242 4.242 0 0 0-1.242-2.999 4.24 4.24 0 0 0-2.999-1.242z"/><path id="E" d="M128.867 16.232v1.678H20.465v-1.678a4.267 4.267 0 0 1 4.242-4.266h99.939a4.248 4.248 0 0 1 2.996 1.256 4.24 4.24 0 0 1 .914 1.383c.209.516.316 1.069.312 1.627v-.001z"/><path id="F" d="m139.436 37.005-.412 1.052-1.725-.678.412-1.057a3.38 3.38 0 0 1-1.311-1.864 3.376 3.376 0 0 1 .173-2.273l.19-.474 2.038.555-.194.502c-.384.976-.124 1.763.682 2.081.167.083.351.129.538.135a1.29 1.29 0 0 0 .994-.426 1.3 1.3 0 0 0 .274-.482c.369-.948-.195-2.09-.891-3.355-.825-1.498-1.574-3.185-.905-4.891s1.929-2.54 3.459-2.332l.417-1.052 1.721.678-.413 1.047c1.29.881 1.645 2.37.977 4.099l-.138.341-2.038-.555.152-.384c.408-1.033.218-1.73-.474-2.009s-1.284 0-1.616.848c-.37.948.223 2.076.891 3.355.801 1.512 1.578 3.189.91 4.891a3.36 3.36 0 0 1-1.444 1.802 3.36 3.36 0 0 1-2.267.444z"/><path id="G" d="M143.403 169.081a62.595 62.595 0 0 1-15.564 13.436 55.193 55.193 0 0 1-5.687 2.966c-13.465 6.053-28.811 6.446-43.162 2.967-30.175-7.313-46.185-33.948-48.218-63.516-.545-7.991-1.768-16.621 1.469-24.223s9.782-12.322 17.185-15.602c5.374-2.393 11.18-4 16.455-5.313a42.333 42.333 0 0 1 28.479 2.938c6.204 2.943 10.621 8.057 15.839 12.365l1.668 1.36a156.41 156.41 0 0 0 16.588 11.663c8.772 5.351 17.753 10.398 23.36 19.384 8.943 14.322 1.398 29.915-8.412 41.574z"/><path id="H" d="M108.299 97.014s-.773-7.645-2.005-9.791l-18.711-3.81v-1.45s.431-2.521-3.739-4.1-12.863.474-15.104 2.171-1.422 4.616-1.422 4.616-7.535 3.806-10.919 5.256a86.47 86.47 0 0 0-8.09 4.265s-1.535 17.573-1.232 21.654-.246 7.919.104 10.18.626 3.545 2.995 5.469 4.526 4.739 10.739 1.948l-.867-.687 40.901-13.778 7.351-21.943z"/><clipPath id="A"><path d="M0 0h203.791v200H0z" class="E"/></clipPath></defs></svg>