<svg xmlns="http://www.w3.org/2000/svg" width="68" height="59" fill="none"><g stroke="#3fb870" stroke-miterlimit="10"><path d="M23.004 33.517h-7.155v8.893h7.155v-8.893zM21.215 42.41v3.557m-1.789-16.008v3.557m16.1 3.558H28.37v10.672h7.155V37.074zM31.948 47.746v1.779m0-14.23v1.779m16.099-3.557h-7.155v8.893h7.155v-8.893zM44.469 42.41v3.557m0-16.008v3.557m16.1 3.558h-7.155v10.672h7.155V37.074zM56.991 47.746v1.779m0-14.23v1.779M36.393 22.827c4.441 0 8.041-3.58 8.041-7.995s-3.6-7.995-8.041-7.995-8.041 3.58-8.041 7.995 3.6 7.995 8.041 7.995z"/></g><path d="M35.962 19.687v-.999a4.804 4.804 0 0 1-1.723-.714c-.431-.428-.718-.999-.862-1.57l1.292-.571c.144.999.574 1.57 1.292 1.713v-2.284c-.718-.143-1.292-.428-1.579-.857-.431-.428-.574-.857-.574-1.428s.144-.999.574-1.428 1.005-.571 1.579-.714v-.999h1.149v.999a2.622 2.622 0 0 1 2.154 1.856l-1.149.714c-.144-.571-.574-.999-1.005-1.285v1.856c.718.143 1.436.428 1.723.857.431.428.574.857.574 1.428s-.144 1.142-.574 1.57-1.005.714-1.723.714v1.142h-1.149zm-.861-6.853c0 .428.287.714.861.857v-1.713c-.574.286-.861.428-.861.857zm2.872 3.569c0-.428-.287-.714-.862-.999v1.999c.287 0 .431-.143.718-.286 0-.285.144-.428.144-.714z" fill="#3fb870"/><path opacity=".1" d="M61.7 33.4h-.2.1c-1.7-.5-2.9-2-2.9-3.8 0-1.2.6-2.3 1.5-3.1h1.6c3.2 0 5.8-2.6 5.8-5.8s-2.6-5.8-5.8-5.8H58c-1.2-.7-2-2-2-3.5 0-1.4.8-2.7 1.9-3.4h2c2.2 0 4-1.8 4-4s-1.8-4-4-4H12.5c-2.2 0-4 1.8-4 4s1.8 4 4 4h2.2c1.1.7 1.9 2 1.9 3.4 0 1.5-.8 2.8-2 3.5H6.5c-3.2 0-5.8 2.6-5.8 5.8s2.6 5.8 5.8 5.8h11c.9.7 1.4 1.8 1.4 3.1 0 1.9-1.3 3.4-3 3.9H6.4c-3.2 0-5.8 2.6-5.8 5.8s2.6 5.8 5.8 5.8h13.4c.5.5.8 1.2.8 1.9s-.3 1.4-.8 1.9h-5.5c-2.7 0-4.8 2.2-4.8 4.8 0 2.7 2.2 4.8 4.8 4.8H60c2.7 0 4.8-2.2 4.8-4.8 0-2.7-2.2-4.8-4.8-4.8h-5.8c-.5-.5-.8-1.1-.8-1.9s.3-1.4.8-1.9h7.5c3.2 0 5.8-2.6 5.8-5.8 0-3.3-2.6-5.9-5.8-5.9z" fill="#41b872"/></svg>